<?xml version="1.0" encoding="UTF-8" standalone="no"?><svg xmlns="http://www.w3.org/2000/svg" xmlns:xlink="http://www.w3.org/1999/xlink" contentStyleType="text/css" height="927px" preserveAspectRatio="none" style="width:719px;height:927px;background:#FFFFFF;" version="1.1" viewBox="0 0 719 927" width="719px" zoomAndPan="magnify"><defs/><g><!--MD5=[46f10a9c6f4f0d1f2d3ba62d73334fb3]
class spacerover.obstacle.Obstacle--><g id="elem_spacerover.obstacle.Obstacle"><rect codeLine="2" fill="#F1F1F1" height="136.0469" id="spacerover.obstacle.Obstacle" rx="2.5" ry="2.5" style="stroke:#181818;stroke-width:0.5;" width="220" x="87" y="165.5"/><ellipse cx="102" cy="181.5" fill="#ADD1B2" rx="11" ry="11" style="stroke:#181818;stroke-width:1.0;"/><path d="M104.7656,177.375 Q104.9219,177.1563 105.1094,177.0469 Q105.2969,176.9375 105.5156,176.9375 Q105.8906,176.9375 106.125,177.2031 Q106.3594,177.4531 106.3594,178.0625 L106.3594,179.5156 Q106.3594,180.125 106.125,180.3906 Q105.8906,180.6563 105.5156,180.6563 Q105.1719,180.6563 104.9688,180.4531 Q104.7656,180.2656 104.6563,179.75 Q104.6094,179.3906 104.4219,179.2031 Q104.0938,178.8281 103.4844,178.6094 Q102.875,178.3906 102.25,178.3906 Q101.4844,178.3906 100.8438,178.7188 Q100.2188,179.0469 99.7188,179.7969 Q99.2344,180.5469 99.2344,181.5781 L99.2344,182.6719 Q99.2344,183.9063 100.125,184.7344 Q101.0156,185.5469 102.6094,185.5469 Q103.5469,185.5469 104.2031,185.2969 Q104.5938,185.1406 105.0156,184.7031 Q105.2813,184.4375 105.4219,184.3594 Q105.5781,184.2813 105.7813,184.2813 Q106.1094,184.2813 106.3594,184.5469 Q106.625,184.7969 106.625,185.1406 Q106.625,185.4844 106.2813,185.8906 Q105.7813,186.4688 104.9844,186.7969 Q103.9063,187.25 102.6094,187.25 Q101.0938,187.25 99.8906,186.625 Q98.9063,186.125 98.2188,185.0625 Q97.5313,183.9844 97.5313,182.7031 L97.5313,181.5469 Q97.5313,180.2188 98.1406,179.0781 Q98.7656,177.9219 99.8594,177.3125 Q100.9531,176.6875 102.1875,176.6875 Q102.9219,176.6875 103.5625,176.8594 Q104.2188,177.0156 104.7656,177.375 Z " fill="#000000"/><text fill="#000000" font-family="sans-serif" font-size="14" lengthAdjust="spacing" textLength="188" x="116" y="187.2285">spacerover.obstacle.Obstacle</text><line style="stroke:#181818;stroke-width:0.5;" x1="88" x2="306" y1="197.5" y2="197.5"/><text fill="#000000" font-family="sans-serif" font-size="14" lengthAdjust="spacing" textLength="38" x="93" y="216.0332">image</text><text fill="#000000" font-family="sans-serif" font-size="14" lengthAdjust="spacing" textLength="109" x="93" y="233.6426">pygame_wrapper</text><text fill="#000000" font-family="sans-serif" font-size="14" lengthAdjust="spacing" textLength="24" x="93" y="251.252">rect</text><text fill="#000000" font-family="sans-serif" font-size="14" lengthAdjust="spacing" textLength="66" x="93" y="268.8613">type : type</text><line style="stroke:#181818;stroke-width:0.5;" x1="88" x2="306" y1="275.9375" y2="275.9375"/><text fill="#000000" font-family="sans-serif" font-size="14" lengthAdjust="spacing" textLength="83" x="93" y="294.4707">draw(screen)</text></g><!--MD5=[4395440ffbf57deb6e5d4201acbbed9f]
class spacerover.pygame_wrapper.PygameWrapper--><g id="elem_spacerover.pygame_wrapper.PygameWrapper"><rect codeLine="9" fill="#F1F1F1" height="453.0156" id="spacerover.pygame_wrapper.PygameWrapper" rx="2.5" ry="2.5" style="stroke:#181818;stroke-width:0.5;" width="326" x="342" y="7"/><ellipse cx="357" cy="23" fill="#ADD1B2" rx="11" ry="11" style="stroke:#181818;stroke-width:1.0;"/><path d="M359.7656,18.875 Q359.9219,18.6563 360.1094,18.5469 Q360.2969,18.4375 360.5156,18.4375 Q360.8906,18.4375 361.125,18.7031 Q361.3594,18.9531 361.3594,19.5625 L361.3594,21.0156 Q361.3594,21.625 361.125,21.8906 Q360.8906,22.1563 360.5156,22.1563 Q360.1719,22.1563 359.9688,21.9531 Q359.7656,21.7656 359.6563,21.25 Q359.6094,20.8906 359.4219,20.7031 Q359.0938,20.3281 358.4844,20.1094 Q357.875,19.8906 357.25,19.8906 Q356.4844,19.8906 355.8438,20.2188 Q355.2188,20.5469 354.7188,21.2969 Q354.2344,22.0469 354.2344,23.0781 L354.2344,24.1719 Q354.2344,25.4063 355.125,26.2344 Q356.0156,27.0469 357.6094,27.0469 Q358.5469,27.0469 359.2031,26.7969 Q359.5938,26.6406 360.0156,26.2031 Q360.2813,25.9375 360.4219,25.8594 Q360.5781,25.7813 360.7813,25.7813 Q361.1094,25.7813 361.3594,26.0469 Q361.625,26.2969 361.625,26.6406 Q361.625,26.9844 361.2813,27.3906 Q360.7813,27.9688 359.9844,28.2969 Q358.9063,28.75 357.6094,28.75 Q356.0938,28.75 354.8906,28.125 Q353.9063,27.625 353.2188,26.5625 Q352.5313,25.4844 352.5313,24.2031 L352.5313,23.0469 Q352.5313,21.7188 353.1406,20.5781 Q353.7656,19.4219 354.8594,18.8125 Q355.9531,18.1875 357.1875,18.1875 Q357.9219,18.1875 358.5625,18.3594 Q359.2188,18.5156 359.7656,18.875 Z " fill="#000000"/><text fill="#000000" font-family="sans-serif" font-size="14" lengthAdjust="spacing" textLength="294" x="371" y="28.7285">spacerover.pygame_wrapper.PygameWrapper</text><line style="stroke:#181818;stroke-width:0.5;" x1="343" x2="667" y1="39" y2="39"/><text fill="#000000" font-family="sans-serif" font-size="14" lengthAdjust="spacing" textLength="118" x="348" y="57.5332">Coordinate : Union</text><text fill="#000000" font-family="sans-serif" font-size="14" lengthAdjust="spacing" textLength="38" x="348" y="75.1426">key_a</text><text fill="#000000" font-family="sans-serif" font-size="14" lengthAdjust="spacing" textLength="38" x="348" y="92.752">key_d</text><text fill="#000000" font-family="sans-serif" font-size="14" lengthAdjust="spacing" textLength="63" x="348" y="110.3613">key_down</text><text fill="#000000" font-family="sans-serif" font-size="14" lengthAdjust="spacing" textLength="49" x="348" y="127.9707">key_left</text><text fill="#000000" font-family="sans-serif" font-size="14" lengthAdjust="spacing" textLength="58" x="348" y="145.5801">key_right</text><text fill="#000000" font-family="sans-serif" font-size="14" lengthAdjust="spacing" textLength="37" x="348" y="163.1895">key_s</text><text fill="#000000" font-family="sans-serif" font-size="14" lengthAdjust="spacing" textLength="46" x="348" y="180.7988">key_up</text><text fill="#000000" font-family="sans-serif" font-size="14" lengthAdjust="spacing" textLength="39" x="348" y="198.4082">key_w</text><line style="stroke:#181818;stroke-width:0.5;" x1="343" x2="667" y1="205.4844" y2="205.4844"/><text fill="#000000" font-family="sans-serif" font-size="14" lengthAdjust="spacing" textLength="45" x="348" y="224.0176">Clock()</text><text fill="#000000" font-family="sans-serif" font-size="14" lengthAdjust="spacing" textLength="313" x="348" y="241.627">Rect(left: float, top: float, width: float, height: float)</text><text fill="#000000" font-family="sans-serif" font-size="14" lengthAdjust="spacing" textLength="80" x="348" y="259.2363">display_flip()</text><text fill="#000000" font-family="sans-serif" font-size="14" lengthAdjust="spacing" textLength="226" x="348" y="276.8457">display_set_mode(size: Coordinate)</text><text fill="#000000" font-family="sans-serif" font-size="14" lengthAdjust="spacing" textLength="198" x="348" y="294.4551">draw_rect(color, rect, width: int)</text><text fill="#000000" font-family="sans-serif" font-size="14" lengthAdjust="spacing" textLength="73" x="348" y="312.0645">get_event()</text><text fill="#000000" font-family="sans-serif" font-size="14" lengthAdjust="spacing" textLength="139" x="348" y="329.6738">get_event_type_quit()</text><text fill="#000000" font-family="sans-serif" font-size="14" lengthAdjust="spacing" textLength="119" x="348" y="347.2832">get_key_pressed()</text><text fill="#000000" font-family="sans-serif" font-size="14" lengthAdjust="spacing" textLength="181" x="348" y="364.8926">load_image(image_path: str)</text><text fill="#000000" font-family="sans-serif" font-size="14" lengthAdjust="spacing" textLength="33" x="348" y="382.502">quit()</text><text fill="#000000" font-family="sans-serif" font-size="14" lengthAdjust="spacing" textLength="174" x="348" y="400.1113">rotate_image(image, angle)</text><text fill="#000000" font-family="sans-serif" font-size="14" lengthAdjust="spacing" textLength="235" x="348" y="417.7207">set_window_caption(window_title: str)</text><text fill="#000000" font-family="sans-serif" font-size="14" lengthAdjust="spacing" textLength="281" x="348" y="435.3301">transform_background_image(image, factor)</text><text fill="#000000" font-family="sans-serif" font-size="14" lengthAdjust="spacing" textLength="198" x="348" y="452.9395">transform_image(image, factor)</text></g><!--MD5=[c0c92e1f649eb9b3989333e76b8b00de]
class spacerover.root_window_pygame.RootWindowPyGame--><g id="elem_spacerover.root_window_pygame.RootWindowPyGame"><rect codeLine="34" fill="#F1F1F1" height="312.1406" id="spacerover.root_window_pygame.RootWindowPyGame" rx="2.5" ry="2.5" style="stroke:#181818;stroke-width:0.5;" width="380" x="7" y="564"/><ellipse cx="22" cy="580" fill="#ADD1B2" rx="11" ry="11" style="stroke:#181818;stroke-width:1.0;"/><path d="M24.7656,575.875 Q24.9219,575.6563 25.1094,575.5469 Q25.2969,575.4375 25.5156,575.4375 Q25.8906,575.4375 26.125,575.7031 Q26.3594,575.9531 26.3594,576.5625 L26.3594,578.0156 Q26.3594,578.625 26.125,578.8906 Q25.8906,579.1563 25.5156,579.1563 Q25.1719,579.1563 24.9688,578.9531 Q24.7656,578.7656 24.6563,578.25 Q24.6094,577.8906 24.4219,577.7031 Q24.0938,577.3281 23.4844,577.1094 Q22.875,576.8906 22.25,576.8906 Q21.4844,576.8906 20.8438,577.2188 Q20.2188,577.5469 19.7188,578.2969 Q19.2344,579.0469 19.2344,580.0781 L19.2344,581.1719 Q19.2344,582.4063 20.125,583.2344 Q21.0156,584.0469 22.6094,584.0469 Q23.5469,584.0469 24.2031,583.7969 Q24.5938,583.6406 25.0156,583.2031 Q25.2813,582.9375 25.4219,582.8594 Q25.5781,582.7813 25.7813,582.7813 Q26.1094,582.7813 26.3594,583.0469 Q26.625,583.2969 26.625,583.6406 Q26.625,583.9844 26.2813,584.3906 Q25.7813,584.9688 24.9844,585.2969 Q23.9063,585.75 22.6094,585.75 Q21.0938,585.75 19.8906,585.125 Q18.9063,584.625 18.2188,583.5625 Q17.5313,582.4844 17.5313,581.2031 L17.5313,580.0469 Q17.5313,578.7188 18.1406,577.5781 Q18.7656,576.4219 19.8594,575.8125 Q20.9531,575.1875 22.1875,575.1875 Q22.9219,575.1875 23.5625,575.3594 Q24.2188,575.5156 24.7656,575.875 Z " fill="#000000"/><text fill="#000000" font-family="sans-serif" font-size="14" lengthAdjust="spacing" textLength="348" x="36" y="585.7285">spacerover.root_window_pygame.RootWindowPyGame</text><line style="stroke:#181818;stroke-width:0.5;" x1="8" x2="386" y1="596" y2="596"/><text fill="#000000" font-family="sans-serif" font-size="14" lengthAdjust="spacing" textLength="121" x="13" y="614.5332">background_image</text><text fill="#000000" font-family="sans-serif" font-size="14" lengthAdjust="spacing" textLength="121" x="13" y="632.1426">background_image</text><text fill="#000000" font-family="sans-serif" font-size="14" lengthAdjust="spacing" textLength="52" x="13" y="649.752">cols : int</text><text fill="#000000" font-family="sans-serif" font-size="14" lengthAdjust="spacing" textLength="89" x="13" y="667.3613">obstacles : list</text><text fill="#000000" font-family="sans-serif" font-size="14" lengthAdjust="spacing" textLength="171" x="13" y="684.9707">obstacles_coordinates : list</text><text fill="#000000" font-family="sans-serif" font-size="14" lengthAdjust="spacing" textLength="109" x="13" y="702.5801">pygame_wrapper</text><text fill="#000000" font-family="sans-serif" font-size="14" lengthAdjust="spacing" textLength="33" x="13" y="720.1895">rover</text><text fill="#000000" font-family="sans-serif" font-size="14" lengthAdjust="spacing" textLength="56" x="13" y="737.7988">rows : int</text><text fill="#000000" font-family="sans-serif" font-size="14" lengthAdjust="spacing" textLength="43" x="13" y="755.4082">screen</text><text fill="#000000" font-family="sans-serif" font-size="14" lengthAdjust="spacing" textLength="90" x="13" y="773.0176">screen_height</text><text fill="#000000" font-family="sans-serif" font-size="14" lengthAdjust="spacing" textLength="83" x="13" y="790.627">screen_width</text><text fill="#000000" font-family="sans-serif" font-size="14" lengthAdjust="spacing" textLength="75" x="13" y="808.2363">window_title</text><text fill="#000000" font-family="sans-serif" font-size="14" lengthAdjust="spacing" textLength="75" x="13" y="825.8457">window_title</text><line style="stroke:#181818;stroke-width:0.5;" x1="8" x2="386" y1="832.9219" y2="832.9219"/><text fill="#000000" font-family="sans-serif" font-size="14" lengthAdjust="spacing" textLength="105" x="13" y="851.4551">load_obstacles()</text><text fill="#000000" font-family="sans-serif" font-size="14" lengthAdjust="spacing" textLength="42" x="13" y="869.0645">open()</text></g><!--MD5=[822cf845bbbf659ab44bea905a9ef2b0]
class spacerover.rover.Rover--><g id="elem_spacerover.rover.Rover"><rect codeLine="51" fill="#F1F1F1" height="400.1875" id="spacerover.rover.Rover" rx="2.5" ry="2.5" style="stroke:#181818;stroke-width:0.5;" width="290" x="422" y="520"/><ellipse cx="487.75" cy="536" fill="#ADD1B2" rx="11" ry="11" style="stroke:#181818;stroke-width:1.0;"/><path d="M490.5156,531.875 Q490.6719,531.6563 490.8594,531.5469 Q491.0469,531.4375 491.2656,531.4375 Q491.6406,531.4375 491.875,531.7031 Q492.1094,531.9531 492.1094,532.5625 L492.1094,534.0156 Q492.1094,534.625 491.875,534.8906 Q491.6406,535.1563 491.2656,535.1563 Q490.9219,535.1563 490.7188,534.9531 Q490.5156,534.7656 490.4063,534.25 Q490.3594,533.8906 490.1719,533.7031 Q489.8438,533.3281 489.2344,533.1094 Q488.625,532.8906 488,532.8906 Q487.2344,532.8906 486.5938,533.2188 Q485.9688,533.5469 485.4688,534.2969 Q484.9844,535.0469 484.9844,536.0781 L484.9844,537.1719 Q484.9844,538.4063 485.875,539.2344 Q486.7656,540.0469 488.3594,540.0469 Q489.2969,540.0469 489.9531,539.7969 Q490.3438,539.6406 490.7656,539.2031 Q491.0313,538.9375 491.1719,538.8594 Q491.3281,538.7813 491.5313,538.7813 Q491.8594,538.7813 492.1094,539.0469 Q492.375,539.2969 492.375,539.6406 Q492.375,539.9844 492.0313,540.3906 Q491.5313,540.9688 490.7344,541.2969 Q489.6563,541.75 488.3594,541.75 Q486.8438,541.75 485.6406,541.125 Q484.6563,540.625 483.9688,539.5625 Q483.2813,538.4844 483.2813,537.2031 L483.2813,536.0469 Q483.2813,534.7188 483.8906,533.5781 Q484.5156,532.4219 485.6094,531.8125 Q486.7031,531.1875 487.9375,531.1875 Q488.6719,531.1875 489.3125,531.3594 Q489.9688,531.5156 490.5156,531.875 Z " fill="#000000"/><text fill="#000000" font-family="sans-serif" font-size="14" lengthAdjust="spacing" textLength="150" x="508.25" y="541.7285">spacerover.rover.Rover</text><line style="stroke:#181818;stroke-width:0.5;" x1="423" x2="711" y1="552" y2="552"/><text fill="#000000" font-family="sans-serif" font-size="14" lengthAdjust="spacing" textLength="54" x="428" y="570.5332">direction</text><text fill="#000000" font-family="sans-serif" font-size="14" lengthAdjust="spacing" textLength="134" x="428" y="588.1426">directions : directions</text><text fill="#000000" font-family="sans-serif" font-size="14" lengthAdjust="spacing" textLength="38" x="428" y="605.752">image</text><text fill="#000000" font-family="sans-serif" font-size="14" lengthAdjust="spacing" textLength="109" x="428" y="623.3613">pygame_wrapper</text><text fill="#000000" font-family="sans-serif" font-size="14" lengthAdjust="spacing" textLength="24" x="428" y="640.9707">rect</text><text fill="#000000" font-family="sans-serif" font-size="14" lengthAdjust="spacing" textLength="66" x="428" y="658.5801">speed : int</text><line style="stroke:#181818;stroke-width:0.5;" x1="423" x2="711" y1="665.6563" y2="665.6563"/><text fill="#000000" font-family="sans-serif" font-size="14" lengthAdjust="spacing" textLength="210" x="428" y="684.1895">keys_move_down_pressed(keys)</text><text fill="#000000" font-family="sans-serif" font-size="14" lengthAdjust="spacing" textLength="196" x="428" y="701.7988">keys_move_left_pressed(keys)</text><text fill="#000000" font-family="sans-serif" font-size="14" lengthAdjust="spacing" textLength="205" x="428" y="719.4082">keys_move_right_pressed(keys)</text><text fill="#000000" font-family="sans-serif" font-size="14" lengthAdjust="spacing" textLength="193" x="428" y="737.0176">keys_move_up_pressed(keys)</text><text fill="#000000" font-family="sans-serif" font-size="14" lengthAdjust="spacing" textLength="278" x="428" y="754.627">listen_to_movement(obstacles_coordinates)</text><text fill="#000000" font-family="sans-serif" font-size="14" lengthAdjust="spacing" textLength="150" x="428" y="772.2363">move_down(collide_list)</text><text fill="#000000" font-family="sans-serif" font-size="14" lengthAdjust="spacing" textLength="136" x="428" y="789.8457">move_left(collide_list)</text><text fill="#000000" font-family="sans-serif" font-size="14" lengthAdjust="spacing" textLength="259" x="428" y="807.4551">move_possible(collide_list, new_position)</text><text fill="#000000" font-family="sans-serif" font-size="14" lengthAdjust="spacing" textLength="145" x="428" y="825.0645">move_right(collide_list)</text><text fill="#000000" font-family="sans-serif" font-size="14" lengthAdjust="spacing" textLength="133" x="428" y="842.6738">move_up(collide_list)</text><text fill="#000000" font-family="sans-serif" font-size="14" lengthAdjust="spacing" textLength="134" x="428" y="860.2832">rotate_image_down()</text><text fill="#000000" font-family="sans-serif" font-size="14" lengthAdjust="spacing" textLength="120" x="428" y="877.8926">rotate_image_left()</text><text fill="#000000" font-family="sans-serif" font-size="14" lengthAdjust="spacing" textLength="129" x="428" y="895.502">rotate_image_right()</text><text fill="#000000" font-family="sans-serif" font-size="14" lengthAdjust="spacing" textLength="117" x="428" y="913.1113">rotate_image_up()</text></g><!--MD5=[dff4123675957b663e746e28985d1a29]
@startuml classes
set namespaceSeparator none
class "spacerover.obstacle.Obstacle" as spacerover.obstacle.Obstacle {
  image
  pygame_wrapper
  rect
  type : type
  draw(screen)
}
class "spacerover.pygame_wrapper.PygameWrapper" as spacerover.pygame_wrapper.PygameWrapper {
  Coordinate : Union
  key_a
  key_d
  key_down
  key_left
  key_right
  key_s
  key_up
  key_w
  Clock()
  Rect(left: float, top: float, width: float, height: float)
  display_flip()
  display_set_mode(size: Coordinate)
  draw_rect(color, rect, width: int)
  get_event()
  get_event_type_quit()
  get_key_pressed()
  load_image(image_path: str)
  quit()
  rotate_image(image, angle)
  set_window_caption(window_title: str)
  transform_background_image(image, factor)
  transform_image(image, factor)
}
class "spacerover.root_window_pygame.RootWindowPyGame" as spacerover.root_window_pygame.RootWindowPyGame {
  background_image
  background_image
  cols : int
  obstacles : list
  obstacles_coordinates : list
  pygame_wrapper
  rover
  rows : int
  screen
  screen_height
  screen_width
  window_title
  window_title
  load_obstacles()
  open()
}
class "spacerover.rover.Rover" as spacerover.rover.Rover {
  direction
  directions : directions
  image
  pygame_wrapper
  rect
  speed : int
  keys_move_down_pressed(keys)
  keys_move_left_pressed(keys)
  keys_move_right_pressed(keys)
  keys_move_up_pressed(keys)
  listen_to_movement(obstacles_coordinates)
  move_down(collide_list)
  move_left(collide_list)
  move_possible(collide_list, new_position)
  move_right(collide_list)
  move_up(collide_list)
  rotate_image_down()
  rotate_image_left()
  rotate_image_right()
  rotate_image_up()
}
@enduml

PlantUML version 1.2022.7(Mon Aug 22 19:01:30 CEST 2022)
(GPL source distribution)
Java Runtime: Java(TM) SE Runtime Environment
JVM: Java HotSpot(TM) 64-Bit Server VM
Default Encoding: UTF-8
Language: en
Country: US
--></g></svg>