<?xml version="1.0" encoding="UTF-8" standalone="no"?><svg xmlns="http://www.w3.org/2000/svg" xmlns:xlink="http://www.w3.org/1999/xlink" contentStyleType="text/css" height="298px" preserveAspectRatio="none" style="width:563px;height:298px;background:#FFFFFF;" version="1.1" viewBox="0 0 563 298" width="563px" zoomAndPan="magnify"><defs/><g><path d="M136,6 L208,6 A3.75,3.75 0 0 1 210.5,8.5 L217.5,29.6094 L222,29.6094 A2.5,2.5 0 0 1 224.5,32.1094 L224.5,58.7188 A2.5,2.5 0 0 1 222,61.2188 L136,61.2188 A2.5,2.5 0 0 1 133.5,58.7188 L133.5,8.5 A2.5,2.5 0 0 1 136,6 " fill="#F1F1F1" style="stroke:#181818;stroke-width:0.5;"/><line style="stroke:#181818;stroke-width:0.5;" x1="133.5" x2="217.5" y1="29.6094" y2="29.6094"/><text fill="#000000" font-family="sans-serif" font-size="14" lengthAdjust="spacing" textLength="71" x="137.5" y="22.5332">spacerover</text><path d="M410.5,236 L539.5,236 A3.75,3.75 0 0 1 542,238.5 L549,259.6094 L553.5,259.6094 A2.5,2.5 0 0 1 556,262.1094 L556,288.7188 A2.5,2.5 0 0 1 553.5,291.2188 L410.5,291.2188 A2.5,2.5 0 0 1 408,288.7188 L408,238.5 A2.5,2.5 0 0 1 410.5,236 " fill="#F1F1F1" style="stroke:#181818;stroke-width:0.5;"/><line style="stroke:#181818;stroke-width:0.5;" x1="408" x2="549" y1="259.6094" y2="259.6094"/><text fill="#000000" font-family="sans-serif" font-size="14" lengthAdjust="spacing" textLength="128" x="412" y="252.5332">spacerover.obstacle</text><path d="M8.5,236 L193.5,236 A3.75,3.75 0 0 1 196,238.5 L203,259.6094 L207.5,259.6094 A2.5,2.5 0 0 1 210,262.1094 L210,288.7188 A2.5,2.5 0 0 1 207.5,291.2188 L8.5,291.2188 A2.5,2.5 0 0 1 6,288.7188 L6,238.5 A2.5,2.5 0 0 1 8.5,236 " fill="#F1F1F1" style="stroke:#181818;stroke-width:0.5;"/><line style="stroke:#181818;stroke-width:0.5;" x1="6" x2="203" y1="259.6094" y2="259.6094"/><text fill="#000000" font-family="sans-serif" font-size="14" lengthAdjust="spacing" textLength="184" x="10" y="252.5332">spacerover.pygame_wrapper</text><path d="M235,121 L447,121 A3.75,3.75 0 0 1 449.5,123.5 L456.5,144.6094 L461,144.6094 A2.5,2.5 0 0 1 463.5,147.1094 L463.5,173.7188 A2.5,2.5 0 0 1 461,176.2188 L235,176.2188 A2.5,2.5 0 0 1 232.5,173.7188 L232.5,123.5 A2.5,2.5 0 0 1 235,121 " fill="#F1F1F1" style="stroke:#181818;stroke-width:0.5;"/><line style="stroke:#181818;stroke-width:0.5;" x1="232.5" x2="456.5" y1="144.6094" y2="144.6094"/><text fill="#000000" font-family="sans-serif" font-size="14" lengthAdjust="spacing" textLength="211" x="236.5" y="137.5332">spacerover.root_window_pygame</text><path d="M247.5,236 L356.5,236 A3.75,3.75 0 0 1 359,238.5 L366,259.6094 L370.5,259.6094 A2.5,2.5 0 0 1 373,262.1094 L373,288.7188 A2.5,2.5 0 0 1 370.5,291.2188 L247.5,291.2188 A2.5,2.5 0 0 1 245,288.7188 L245,238.5 A2.5,2.5 0 0 1 247.5,236 " fill="#F1F1F1" style="stroke:#181818;stroke-width:0.5;"/><line style="stroke:#181818;stroke-width:0.5;" x1="245" x2="366" y1="259.6094" y2="259.6094"/><text fill="#000000" font-family="sans-serif" font-size="14" lengthAdjust="spacing" textLength="108" x="249" y="252.5332">spacerover.rover</text><path d="M267.5,6 L414.5,6 A3.75,3.75 0 0 1 417,8.5 L424,29.6094 L428.5,29.6094 A2.5,2.5 0 0 1 431,32.1094 L431,58.7188 A2.5,2.5 0 0 1 428.5,61.2188 L267.5,61.2188 A2.5,2.5 0 0 1 265,58.7188 L265,8.5 A2.5,2.5 0 0 1 267.5,6 " fill="#F1F1F1" style="stroke:#181818;stroke-width:0.5;"/><line style="stroke:#181818;stroke-width:0.5;" x1="265" x2="424" y1="29.6094" y2="29.6094"/><text fill="#000000" font-family="sans-serif" font-size="14" lengthAdjust="spacing" textLength="146" x="269" y="22.5332">spacerover.spacerover</text><!--MD5=[68445350e07e3366e50f6c76fd5b5096]
link spacerover to spacerover.pygame_wrapper--><g id="link_spacerover_spacerover.pygame_wrapper"><path d="M170.72,61.1 C157.55,103.38 131.91,185.73 117.83,230.93 " fill="none" id="spacerover-to-spacerover.pygame_wrapper" style="stroke:#181818;stroke-width:1.0;"/><polygon fill="#181818" points="116.34,235.72,122.8348,228.3161,117.8265,230.9461,115.1965,225.9377,116.34,235.72" style="stroke:#181818;stroke-width:1.0;"/></g><!--MD5=[2910b41917c491e314cab5661abe920b]
link spacerover to spacerover.root_window_pygame--><g id="link_spacerover_spacerover.root_window_pygame"><path d="M219.05,61.28 C244.62,78.38 277.79,100.55 304.08,118.13 " fill="none" id="spacerover-to-spacerover.root_window_pygame" style="stroke:#181818;stroke-width:1.0;"/><polygon fill="#181818" points="308.24,120.91,302.9703,112.5895,304.0797,118.1365,298.5327,119.2459,308.24,120.91" style="stroke:#181818;stroke-width:1.0;"/></g><!--MD5=[3194a33a2357f04e2e92132217594e8f]
link spacerover to spacerover.rover--><g id="link_spacerover_spacerover.rover"><path d="M181.19,61 C184.65,90.8 193.37,139.76 215,176 C228,197.78 248.14,217.36 266.45,232.36 " fill="none" id="spacerover-to-spacerover.rover" style="stroke:#181818;stroke-width:1.0;"/><polygon fill="#181818" points="270.57,235.68,266.0527,226.9282,266.6698,232.5513,261.0468,233.1685,270.57,235.68" style="stroke:#181818;stroke-width:1.0;"/></g><!--MD5=[abf780648d1de241309355b5349a1e99]
link spacerover.root_window_pygame to spacerover.obstacle--><g id="link_spacerover.root_window_pygame_spacerover.obstacle"><path d="M379.76,176.28 C399.78,193.17 425.68,215.01 446.4,232.48 " fill="none" id="spacerover.root_window_pygame-to-spacerover.obstacle" style="stroke:#181818;stroke-width:1.0;"/><polygon fill="#181818" points="450.47,235.91,446.1684,227.0502,446.6477,232.6867,441.0111,233.1659,450.47,235.91" style="stroke:#181818;stroke-width:1.0;"/></g><!--MD5=[0cdc7de2959133a4998fc8f9e76b4b9d]
link spacerover.root_window_pygame to spacerover.pygame_wrapper--><g id="link_spacerover.root_window_pygame_spacerover.pygame_wrapper"><path d="M291.43,176.14 C254.67,193.44 206.78,215.99 169.15,233.71 " fill="none" id="spacerover.root_window_pygame-to-spacerover.pygame_wrapper" style="stroke:#181818;stroke-width:1.0;"/><polygon fill="#181818" points="164.61,235.85,174.4567,235.6416,169.1351,233.7231,171.0536,228.4015,164.61,235.85" style="stroke:#181818;stroke-width:1.0;"/></g><!--MD5=[bc8d34957cdaf5b0461c6a09451137bc]
link spacerover.root_window_pygame to spacerover.rover--><g id="link_spacerover.root_window_pygame_spacerover.rover"><path d="M338.76,176.28 C333.07,192.74 325.77,213.92 319.82,231.16 " fill="none" id="spacerover.root_window_pygame-to-spacerover.rover" style="stroke:#181818;stroke-width:1.0;"/><polygon fill="#181818" points="318.18,235.91,324.8927,228.7031,319.8082,231.1825,317.3288,226.098,318.18,235.91" style="stroke:#181818;stroke-width:1.0;"/></g><!--MD5=[a64740dfcb331071399d5330ed8b310e]
link spacerover.spacerover to spacerover.root_window_pygame--><g id="link_spacerover.spacerover_spacerover.root_window_pygame"><path d="M348,61.28 C348,77.6 348,98.56 348,115.72 " fill="none" id="spacerover.spacerover-to-spacerover.root_window_pygame" style="stroke:#181818;stroke-width:1.0;"/><polygon fill="#181818" points="348,120.91,352,111.91,348,115.91,344,111.91,348,120.91" style="stroke:#181818;stroke-width:1.0;"/></g><!--MD5=[aeb81522b78713ed545b2653992b3b87]
@startuml packages
set namespaceSeparator none
package "spacerover" as spacerover {
}
package "spacerover.obstacle" as spacerover.obstacle {
}
package "spacerover.pygame_wrapper" as spacerover.pygame_wrapper {
}
package "spacerover.root_window_pygame" as spacerover.root_window_pygame {
}
package "spacerover.rover" as spacerover.rover {
}
package "spacerover.spacerover" as spacerover.spacerover {
}
spacerover - -> spacerover.pygame_wrapper
spacerover - -> spacerover.root_window_pygame
spacerover - -> spacerover.rover
spacerover.root_window_pygame - -> spacerover.obstacle
spacerover.root_window_pygame - -> spacerover.pygame_wrapper
spacerover.root_window_pygame - -> spacerover.rover
spacerover.spacerover - -> spacerover.root_window_pygame
@enduml

PlantUML version 1.2022.7(Mon Aug 22 19:01:30 CEST 2022)
(GPL source distribution)
Java Runtime: Java(TM) SE Runtime Environment
JVM: Java HotSpot(TM) 64-Bit Server VM
Default Encoding: UTF-8
Language: en
Country: US
--></g></svg>