<?xml version="1.0" encoding="UTF-8" standalone="no"?><svg xmlns="http://www.w3.org/2000/svg" xmlns:xlink="http://www.w3.org/1999/xlink" contentStyleType="text/css" height="298px" preserveAspectRatio="none" style="width:563px;height:298px;background:#FFFFFF;" version="1.1" viewBox="0 0 563 298" width="563px" zoomAndPan="magnify"><defs/><g><path d="M105,6 L177,6 A3.75,3.75 0 0 1 179.5,8.5 L186.5,29.6094 L191,29.6094 A2.5,2.5 0 0 1 193.5,32.1094 L193.5,58.7188 A2.5,2.5 0 0 1 191,61.2188 L105,61.2188 A2.5,2.5 0 0 1 102.5,58.7188 L102.5,8.5 A2.5,2.5 0 0 1 105,6 " fill="#F1F1F1" style="stroke:#181818;stroke-width:0.5;"/><line style="stroke:#181818;stroke-width:0.5;" x1="102.5" x2="186.5" y1="29.6094" y2="29.6094"/><text fill="#000000" font-family="sans-serif" font-size="14" lengthAdjust="spacing" textLength="71" x="106.5" y="22.5332">spacerover</text><path d="M231,6 L337,6 A3.75,3.75 0 0 1 339.5,8.5 L346.5,29.6094 L351,29.6094 A2.5,2.5 0 0 1 353.5,32.1094 L353.5,58.7188 A2.5,2.5 0 0 1 351,61.2188 L231,61.2188 A2.5,2.5 0 0 1 228.5,58.7188 L228.5,8.5 A2.5,2.5 0 0 1 231,6 " fill="#F1F1F1" style="stroke:#181818;stroke-width:0.5;"/><line style="stroke:#181818;stroke-width:0.5;" x1="228.5" x2="346.5" y1="29.6094" y2="29.6094"/><text fill="#000000" font-family="sans-serif" font-size="14" lengthAdjust="spacing" textLength="105" x="232.5" y="22.5332">spacerover.main</text><path d="M8.5,236 L137.5,236 A3.75,3.75 0 0 1 140,238.5 L147,259.6094 L151.5,259.6094 A2.5,2.5 0 0 1 154,262.1094 L154,288.7188 A2.5,2.5 0 0 1 151.5,291.2188 L8.5,291.2188 A2.5,2.5 0 0 1 6,288.7188 L6,238.5 A2.5,2.5 0 0 1 8.5,236 " fill="#F1F1F1" style="stroke:#181818;stroke-width:0.5;"/><line style="stroke:#181818;stroke-width:0.5;" x1="6" x2="147" y1="259.6094" y2="259.6094"/><text fill="#000000" font-family="sans-serif" font-size="14" lengthAdjust="spacing" textLength="128" x="10" y="252.5332">spacerover.obstacle</text><path d="M191.5,236 L376.5,236 A3.75,3.75 0 0 1 379,238.5 L386,259.6094 L390.5,259.6094 A2.5,2.5 0 0 1 393,262.1094 L393,288.7188 A2.5,2.5 0 0 1 390.5,291.2188 L191.5,291.2188 A2.5,2.5 0 0 1 189,288.7188 L189,238.5 A2.5,2.5 0 0 1 191.5,236 " fill="#F1F1F1" style="stroke:#181818;stroke-width:0.5;"/><line style="stroke:#181818;stroke-width:0.5;" x1="189" x2="386" y1="259.6094" y2="259.6094"/><text fill="#000000" font-family="sans-serif" font-size="14" lengthAdjust="spacing" textLength="184" x="193" y="252.5332">spacerover.pygame_wrapper</text><path d="M178,121 L390,121 A3.75,3.75 0 0 1 392.5,123.5 L399.5,144.6094 L404,144.6094 A2.5,2.5 0 0 1 406.5,147.1094 L406.5,173.7188 A2.5,2.5 0 0 1 404,176.2188 L178,176.2188 A2.5,2.5 0 0 1 175.5,173.7188 L175.5,123.5 A2.5,2.5 0 0 1 178,121 " fill="#F1F1F1" style="stroke:#181818;stroke-width:0.5;"/><line style="stroke:#181818;stroke-width:0.5;" x1="175.5" x2="399.5" y1="144.6094" y2="144.6094"/><text fill="#000000" font-family="sans-serif" font-size="14" lengthAdjust="spacing" textLength="211" x="179.5" y="137.5332">spacerover.root_window_pygame</text><path d="M430.5,236 L539.5,236 A3.75,3.75 0 0 1 542,238.5 L549,259.6094 L553.5,259.6094 A2.5,2.5 0 0 1 556,262.1094 L556,288.7188 A2.5,2.5 0 0 1 553.5,291.2188 L430.5,291.2188 A2.5,2.5 0 0 1 428,288.7188 L428,238.5 A2.5,2.5 0 0 1 430.5,236 " fill="#F1F1F1" style="stroke:#181818;stroke-width:0.5;"/><line style="stroke:#181818;stroke-width:0.5;" x1="428" x2="549" y1="259.6094" y2="259.6094"/><text fill="#000000" font-family="sans-serif" font-size="14" lengthAdjust="spacing" textLength="108" x="432" y="252.5332">spacerover.rover</text><!--MD5=[1cbeb1ee321acd401cc535aa969eebf9]
link spacerover.main to spacerover.root_window_pygame--><g id="link_spacerover.main_spacerover.root_window_pygame"><path d="M291,61.28 C291,77.6 291,98.56 291,115.72 " fill="none" id="spacerover.main-to-spacerover.root_window_pygame" style="stroke:#181818;stroke-width:1.0;"/><polygon fill="#181818" points="291,120.91,295,111.91,291,115.91,287,111.91,291,120.91" style="stroke:#181818;stroke-width:1.0;"/></g><!--MD5=[abf780648d1de241309355b5349a1e99]
link spacerover.root_window_pygame to spacerover.obstacle--><g id="link_spacerover.root_window_pygame_spacerover.obstacle"><path d="M241.26,176.14 C209.21,193.3 167.53,215.63 134.57,233.28 " fill="none" id="spacerover.root_window_pygame-to-spacerover.obstacle" style="stroke:#181818;stroke-width:1.0;"/><polygon fill="#181818" points="129.77,235.85,139.5932,235.1392,134.1806,233.4948,135.8249,228.0822,129.77,235.85" style="stroke:#181818;stroke-width:1.0;"/></g><!--MD5=[0cdc7de2959133a4998fc8f9e76b4b9d]
link spacerover.root_window_pygame to spacerover.pygame_wrapper--><g id="link_spacerover.root_window_pygame_spacerover.pygame_wrapper"><path d="M291,176.28 C291,192.6 291,213.56 291,230.72 " fill="none" id="spacerover.root_window_pygame-to-spacerover.pygame_wrapper" style="stroke:#181818;stroke-width:1.0;"/><polygon fill="#181818" points="291,235.91,295,226.91,291,230.91,287,226.91,291,235.91" style="stroke:#181818;stroke-width:1.0;"/></g><!--MD5=[bc8d34957cdaf5b0461c6a09451137bc]
link spacerover.root_window_pygame to spacerover.rover--><g id="link_spacerover.root_window_pygame_spacerover.rover"><path d="M338.38,176.14 C368.91,193.3 408.62,215.63 440.02,233.28 " fill="none" id="spacerover.root_window_pygame-to-spacerover.rover" style="stroke:#181818;stroke-width:1.0;"/><polygon fill="#181818" points="444.59,235.85,438.7155,227.9449,440.2348,233.3939,434.7858,234.9133,444.59,235.85" style="stroke:#181818;stroke-width:1.0;"/></g><!--MD5=[00d72aecff5ed0c4ee41ffc9ac1a0e43]
@startuml packages
set namespaceSeparator none
package "spacerover" as spacerover {
}
package "spacerover.main" as spacerover.main {
}
package "spacerover.obstacle" as spacerover.obstacle {
}
package "spacerover.pygame_wrapper" as spacerover.pygame_wrapper {
}
package "spacerover.root_window_pygame" as spacerover.root_window_pygame {
}
package "spacerover.rover" as spacerover.rover {
}
spacerover.main - -> spacerover.root_window_pygame
spacerover.root_window_pygame - -> spacerover.obstacle
spacerover.root_window_pygame - -> spacerover.pygame_wrapper
spacerover.root_window_pygame - -> spacerover.rover
@enduml

PlantUML version 1.2022.7(Mon Aug 22 19:01:30 CEST 2022)
(GPL source distribution)
Java Runtime: Java(TM) SE Runtime Environment
JVM: Java HotSpot(TM) 64-Bit Server VM
Default Encoding: UTF-8
Language: en
Country: US
--></g></svg>