<?xml version="1.0" encoding="UTF-8" standalone="no"?><svg xmlns="http://www.w3.org/2000/svg" xmlns:xlink="http://www.w3.org/1999/xlink" contentStyleType="text/css" height="1173px" preserveAspectRatio="none" style="width:1650px;height:1173px;background:#FFFFFF;" version="1.1" viewBox="0 0 1650 1173" width="1650px" zoomAndPan="magnify"><defs/><g><!--MD5=[0d9a7f3473e4360f8bcad0bbde89920a]
class .EnumMeta--><g id="elem_.EnumMeta"><rect codeLine="2" fill="#F1F1F1" height="48" id=".EnumMeta" rx="2.5" ry="2.5" style="stroke:#181818;stroke-width:0.5;" width="103" x="493" y="846"/><ellipse cx="508" cy="862" fill="#ADD1B2" rx="11" ry="11" style="stroke:#181818;stroke-width:1.0;"/><path d="M510.7656,857.875 Q510.9219,857.6563 511.1094,857.5469 Q511.2969,857.4375 511.5156,857.4375 Q511.8906,857.4375 512.125,857.7031 Q512.3594,857.9531 512.3594,858.5625 L512.3594,860.0156 Q512.3594,860.625 512.125,860.8906 Q511.8906,861.1563 511.5156,861.1563 Q511.1719,861.1563 510.9688,860.9531 Q510.7656,860.7656 510.6563,860.25 Q510.6094,859.8906 510.4219,859.7031 Q510.0938,859.3281 509.4844,859.1094 Q508.875,858.8906 508.25,858.8906 Q507.4844,858.8906 506.8438,859.2188 Q506.2188,859.5469 505.7188,860.2969 Q505.2344,861.0469 505.2344,862.0781 L505.2344,863.1719 Q505.2344,864.4063 506.125,865.2344 Q507.0156,866.0469 508.6094,866.0469 Q509.5469,866.0469 510.2031,865.7969 Q510.5938,865.6406 511.0156,865.2031 Q511.2813,864.9375 511.4219,864.8594 Q511.5781,864.7813 511.7813,864.7813 Q512.1094,864.7813 512.3594,865.0469 Q512.625,865.2969 512.625,865.6406 Q512.625,865.9844 512.2813,866.3906 Q511.7813,866.9688 510.9844,867.2969 Q509.9063,867.75 508.6094,867.75 Q507.0938,867.75 505.8906,867.125 Q504.9063,866.625 504.2188,865.5625 Q503.5313,864.4844 503.5313,863.2031 L503.5313,862.0469 Q503.5313,860.7188 504.1406,859.5781 Q504.7656,858.4219 505.8594,857.8125 Q506.9531,857.1875 508.1875,857.1875 Q508.9219,857.1875 509.5625,857.3594 Q510.2188,857.5156 510.7656,857.875 Z " fill="#000000"/><text fill="#000000" font-family="sans-serif" font-size="14" lengthAdjust="spacing" textLength="71" x="522" y="867.7285">.EnumMeta</text><line style="stroke:#181818;stroke-width:0.5;" x1="494" x2="595" y1="878" y2="878"/><line style="stroke:#181818;stroke-width:0.5;" x1="494" x2="595" y1="886" y2="886"/></g><!--MD5=[16b716fd49c0daa0ead9d3ecb08e78d2]
class .Union--><g id="elem_.Union"><rect codeLine="4" fill="#F1F1F1" height="48" id=".Union" rx="2.5" ry="2.5" style="stroke:#181818;stroke-width:0.5;" width="72" x="1286.5" y="227"/><ellipse cx="1301.5" cy="243" fill="#ADD1B2" rx="11" ry="11" style="stroke:#181818;stroke-width:1.0;"/><path d="M1304.2656,238.875 Q1304.4219,238.6563 1304.6094,238.5469 Q1304.7969,238.4375 1305.0156,238.4375 Q1305.3906,238.4375 1305.625,238.7031 Q1305.8594,238.9531 1305.8594,239.5625 L1305.8594,241.0156 Q1305.8594,241.625 1305.625,241.8906 Q1305.3906,242.1563 1305.0156,242.1563 Q1304.6719,242.1563 1304.4688,241.9531 Q1304.2656,241.7656 1304.1563,241.25 Q1304.1094,240.8906 1303.9219,240.7031 Q1303.5938,240.3281 1302.9844,240.1094 Q1302.375,239.8906 1301.75,239.8906 Q1300.9844,239.8906 1300.3438,240.2188 Q1299.7188,240.5469 1299.2188,241.2969 Q1298.7344,242.0469 1298.7344,243.0781 L1298.7344,244.1719 Q1298.7344,245.4063 1299.625,246.2344 Q1300.5156,247.0469 1302.1094,247.0469 Q1303.0469,247.0469 1303.7031,246.7969 Q1304.0938,246.6406 1304.5156,246.2031 Q1304.7813,245.9375 1304.9219,245.8594 Q1305.0781,245.7813 1305.2813,245.7813 Q1305.6094,245.7813 1305.8594,246.0469 Q1306.125,246.2969 1306.125,246.6406 Q1306.125,246.9844 1305.7813,247.3906 Q1305.2813,247.9688 1304.4844,248.2969 Q1303.4063,248.75 1302.1094,248.75 Q1300.5938,248.75 1299.3906,248.125 Q1298.4063,247.625 1297.7188,246.5625 Q1297.0313,245.4844 1297.0313,244.2031 L1297.0313,243.0469 Q1297.0313,241.7188 1297.6406,240.5781 Q1298.2656,239.4219 1299.3594,238.8125 Q1300.4531,238.1875 1301.6875,238.1875 Q1302.4219,238.1875 1303.0625,238.3594 Q1303.7188,238.5156 1304.2656,238.875 Z " fill="#000000"/><text fill="#000000" font-family="sans-serif" font-size="14" lengthAdjust="spacing" textLength="40" x="1315.5" y="248.7285">.Union</text><line style="stroke:#181818;stroke-width:0.5;" x1="1287.5" x2="1357.5" y1="259" y2="259"/><line style="stroke:#181818;stroke-width:0.5;" x1="1287.5" x2="1357.5" y1="267" y2="267"/></g><!--MD5=[530f48020d586cf785d43704b81ca4f9]
class spacerover.level_one.LevelOne--><g id="elem_spacerover.level_one.LevelOne"><rect codeLine="6" fill="#F1F1F1" height="488.2344" id="spacerover.level_one.LevelOne" rx="2.5" ry="2.5" style="stroke:#181818;stroke-width:0.5;" width="233" x="7" y="7"/><ellipse cx="22" cy="23" fill="#ADD1B2" rx="11" ry="11" style="stroke:#181818;stroke-width:1.0;"/><path d="M24.7656,18.875 Q24.9219,18.6563 25.1094,18.5469 Q25.2969,18.4375 25.5156,18.4375 Q25.8906,18.4375 26.125,18.7031 Q26.3594,18.9531 26.3594,19.5625 L26.3594,21.0156 Q26.3594,21.625 26.125,21.8906 Q25.8906,22.1563 25.5156,22.1563 Q25.1719,22.1563 24.9688,21.9531 Q24.7656,21.7656 24.6563,21.25 Q24.6094,20.8906 24.4219,20.7031 Q24.0938,20.3281 23.4844,20.1094 Q22.875,19.8906 22.25,19.8906 Q21.4844,19.8906 20.8438,20.2188 Q20.2188,20.5469 19.7188,21.2969 Q19.2344,22.0469 19.2344,23.0781 L19.2344,24.1719 Q19.2344,25.4063 20.125,26.2344 Q21.0156,27.0469 22.6094,27.0469 Q23.5469,27.0469 24.2031,26.7969 Q24.5938,26.6406 25.0156,26.2031 Q25.2813,25.9375 25.4219,25.8594 Q25.5781,25.7813 25.7813,25.7813 Q26.1094,25.7813 26.3594,26.0469 Q26.625,26.2969 26.625,26.6406 Q26.625,26.9844 26.2813,27.3906 Q25.7813,27.9688 24.9844,28.2969 Q23.9063,28.75 22.6094,28.75 Q21.0938,28.75 19.8906,28.125 Q18.9063,27.625 18.2188,26.5625 Q17.5313,25.4844 17.5313,24.2031 L17.5313,23.0469 Q17.5313,21.7188 18.1406,20.5781 Q18.7656,19.4219 19.8594,18.8125 Q20.9531,18.1875 22.1875,18.1875 Q22.9219,18.1875 23.5625,18.3594 Q24.2188,18.5156 24.7656,18.875 Z " fill="#000000"/><text fill="#000000" font-family="sans-serif" font-size="14" lengthAdjust="spacing" textLength="201" x="36" y="28.7285">spacerover.level_one.LevelOne</text><line style="stroke:#181818;stroke-width:0.5;" x1="8" x2="239" y1="39" y2="39"/><text fill="#000000" font-family="sans-serif" font-size="14" lengthAdjust="spacing" textLength="115" x="13" y="57.5332">TEXT_COL : tuple</text><text fill="#000000" font-family="sans-serif" font-size="14" lengthAdjust="spacing" textLength="121" x="13" y="75.1426">background_image</text><text fill="#000000" font-family="sans-serif" font-size="14" lengthAdjust="spacing" textLength="121" x="13" y="92.752">background_image</text><text fill="#000000" font-family="sans-serif" font-size="14" lengthAdjust="spacing" textLength="52" x="13" y="110.3613">cols : int</text><text fill="#000000" font-family="sans-serif" font-size="14" lengthAdjust="spacing" textLength="101" x="13" y="127.9707">endpoint_image</text><text fill="#000000" font-family="sans-serif" font-size="14" lengthAdjust="spacing" textLength="133" x="13" y="145.5801">endpoint_image_rect</text><text fill="#000000" font-family="sans-serif" font-size="14" lengthAdjust="spacing" textLength="24" x="13" y="163.1895">font</text><text fill="#000000" font-family="sans-serif" font-size="14" lengthAdjust="spacing" textLength="129" x="13" y="180.7988">game_paused : bool</text><text fill="#000000" font-family="sans-serif" font-size="14" lengthAdjust="spacing" textLength="89" x="13" y="198.4082">obstacles : list</text><text fill="#000000" font-family="sans-serif" font-size="14" lengthAdjust="spacing" textLength="109" x="13" y="216.0176">pygame_wrapper</text><text fill="#000000" font-family="sans-serif" font-size="14" lengthAdjust="spacing" textLength="33" x="13" y="233.627">rover</text><text fill="#000000" font-family="sans-serif" font-size="14" lengthAdjust="spacing" textLength="56" x="13" y="251.2363">rows : int</text><text fill="#000000" font-family="sans-serif" font-size="14" lengthAdjust="spacing" textLength="43" x="13" y="268.8457">screen</text><text fill="#000000" font-family="sans-serif" font-size="14" lengthAdjust="spacing" textLength="90" x="13" y="286.4551">screen_height</text><text fill="#000000" font-family="sans-serif" font-size="14" lengthAdjust="spacing" textLength="83" x="13" y="304.0645">screen_width</text><text fill="#000000" font-family="sans-serif" font-size="14" lengthAdjust="spacing" textLength="105" x="13" y="321.6738">startpoint_image</text><text fill="#000000" font-family="sans-serif" font-size="14" lengthAdjust="spacing" textLength="137" x="13" y="339.2832">startpoint_image_rect</text><text fill="#000000" font-family="sans-serif" font-size="14" lengthAdjust="spacing" textLength="51" x="13" y="356.8926">titleFont</text><text fill="#000000" font-family="sans-serif" font-size="14" lengthAdjust="spacing" textLength="75" x="13" y="374.502">window_title</text><line style="stroke:#181818;stroke-width:0.5;" x1="8" x2="239" y1="381.5781" y2="381.5781"/><text fill="#000000" font-family="sans-serif" font-size="14" lengthAdjust="spacing" textLength="108" x="13" y="400.1113">draw_obstacles()</text><text fill="#000000" font-family="sans-serif" font-size="14" lengthAdjust="spacing" textLength="209" x="13" y="417.7207">draw_text(text, font, text_col, x, y)</text><text fill="#000000" font-family="sans-serif" font-size="14" lengthAdjust="spacing" textLength="100" x="13" y="435.3301">load_endpoint()</text><text fill="#000000" font-family="sans-serif" font-size="14" lengthAdjust="spacing" textLength="105" x="13" y="452.9395">load_obstacles()</text><text fill="#000000" font-family="sans-serif" font-size="14" lengthAdjust="spacing" textLength="104" x="13" y="470.5488">load_startpoint()</text><text fill="#000000" font-family="sans-serif" font-size="14" lengthAdjust="spacing" textLength="42" x="13" y="488.1582">open()</text></g><!--MD5=[0a1d6f9800eb1d1b3e90d98f0cf39a76]
class spacerover.main_menu.MainMenu--><g id="elem_spacerover.main_menu.MainMenu"><rect codeLine="33" fill="#F1F1F1" height="276.9219" id="spacerover.main_menu.MainMenu" rx="2.5" ry="2.5" style="stroke:#181818;stroke-width:0.5;" width="259" x="275" y="112.5"/><ellipse cx="294.5" cy="128.5" fill="#ADD1B2" rx="11" ry="11" style="stroke:#181818;stroke-width:1.0;"/><path d="M297.2656,124.375 Q297.4219,124.1563 297.6094,124.0469 Q297.7969,123.9375 298.0156,123.9375 Q298.3906,123.9375 298.625,124.2031 Q298.8594,124.4531 298.8594,125.0625 L298.8594,126.5156 Q298.8594,127.125 298.625,127.3906 Q298.3906,127.6563 298.0156,127.6563 Q297.6719,127.6563 297.4688,127.4531 Q297.2656,127.2656 297.1563,126.75 Q297.1094,126.3906 296.9219,126.2031 Q296.5938,125.8281 295.9844,125.6094 Q295.375,125.3906 294.75,125.3906 Q293.9844,125.3906 293.3438,125.7188 Q292.7188,126.0469 292.2188,126.7969 Q291.7344,127.5469 291.7344,128.5781 L291.7344,129.6719 Q291.7344,130.9063 292.625,131.7344 Q293.5156,132.5469 295.1094,132.5469 Q296.0469,132.5469 296.7031,132.2969 Q297.0938,132.1406 297.5156,131.7031 Q297.7813,131.4375 297.9219,131.3594 Q298.0781,131.2813 298.2813,131.2813 Q298.6094,131.2813 298.8594,131.5469 Q299.125,131.7969 299.125,132.1406 Q299.125,132.4844 298.7813,132.8906 Q298.2813,133.4688 297.4844,133.7969 Q296.4063,134.25 295.1094,134.25 Q293.5938,134.25 292.3906,133.625 Q291.4063,133.125 290.7188,132.0625 Q290.0313,130.9844 290.0313,129.7031 L290.0313,128.5469 Q290.0313,127.2188 290.6406,126.0781 Q291.2656,124.9219 292.3594,124.3125 Q293.4531,123.6875 294.6875,123.6875 Q295.4219,123.6875 296.0625,123.8594 Q296.7188,124.0156 297.2656,124.375 Z " fill="#000000"/><text fill="#000000" font-family="sans-serif" font-size="14" lengthAdjust="spacing" textLength="217" x="309.5" y="134.2285">spacerover.main_menu.MainMenu</text><line style="stroke:#181818;stroke-width:0.5;" x1="276" x2="533" y1="144.5" y2="144.5"/><text fill="#000000" font-family="sans-serif" font-size="14" lengthAdjust="spacing" textLength="118" x="281" y="163.0332">buttonLocationLeft</text><text fill="#000000" font-family="sans-serif" font-size="14" lengthAdjust="spacing" textLength="145" x="281" y="180.6426">buttonLocationQuitTop</text><text fill="#000000" font-family="sans-serif" font-size="14" lengthAdjust="spacing" textLength="149" x="281" y="198.252">buttonLocationStartTop</text><text fill="#000000" font-family="sans-serif" font-size="14" lengthAdjust="spacing" textLength="24" x="281" y="215.8613">font</text><text fill="#000000" font-family="sans-serif" font-size="14" lengthAdjust="spacing" textLength="109" x="281" y="233.4707">pygame_wrapper</text><text fill="#000000" font-family="sans-serif" font-size="14" lengthAdjust="spacing" textLength="43" x="281" y="251.0801">screen</text><text fill="#000000" font-family="sans-serif" font-size="14" lengthAdjust="spacing" textLength="90" x="281" y="268.6895">screen_height</text><text fill="#000000" font-family="sans-serif" font-size="14" lengthAdjust="spacing" textLength="83" x="281" y="286.2988">screen_width</text><text fill="#000000" font-family="sans-serif" font-size="14" lengthAdjust="spacing" textLength="51" x="281" y="303.9082">titleFont</text><line style="stroke:#181818;stroke-width:0.5;" x1="276" x2="533" y1="310.9844" y2="310.9844"/><text fill="#000000" font-family="sans-serif" font-size="14" lengthAdjust="spacing" textLength="247" x="281" y="329.5176">draw_text(text, font, color, surface, x, y)</text><text fill="#000000" font-family="sans-serif" font-size="14" lengthAdjust="spacing" textLength="45" x="281" y="347.127">game()</text><text fill="#000000" font-family="sans-serif" font-size="14" lengthAdjust="spacing" textLength="42" x="281" y="364.7363">open()</text><text fill="#000000" font-family="sans-serif" font-size="14" lengthAdjust="spacing" textLength="56" x="281" y="382.3457">options()</text></g><!--MD5=[46f10a9c6f4f0d1f2d3ba62d73334fb3]
class spacerover.obstacle.Obstacle--><g id="elem_spacerover.obstacle.Obstacle"><rect codeLine="48" fill="#F1F1F1" height="136.0469" id="spacerover.obstacle.Obstacle" rx="2.5" ry="2.5" style="stroke:#181818;stroke-width:0.5;" width="220" x="13.5" y="802"/><ellipse cx="28.5" cy="818" fill="#ADD1B2" rx="11" ry="11" style="stroke:#181818;stroke-width:1.0;"/><path d="M31.2656,813.875 Q31.4219,813.6563 31.6094,813.5469 Q31.7969,813.4375 32.0156,813.4375 Q32.3906,813.4375 32.625,813.7031 Q32.8594,813.9531 32.8594,814.5625 L32.8594,816.0156 Q32.8594,816.625 32.625,816.8906 Q32.3906,817.1563 32.0156,817.1563 Q31.6719,817.1563 31.4688,816.9531 Q31.2656,816.7656 31.1563,816.25 Q31.1094,815.8906 30.9219,815.7031 Q30.5938,815.3281 29.9844,815.1094 Q29.375,814.8906 28.75,814.8906 Q27.9844,814.8906 27.3438,815.2188 Q26.7188,815.5469 26.2188,816.2969 Q25.7344,817.0469 25.7344,818.0781 L25.7344,819.1719 Q25.7344,820.4063 26.625,821.2344 Q27.5156,822.0469 29.1094,822.0469 Q30.0469,822.0469 30.7031,821.7969 Q31.0938,821.6406 31.5156,821.2031 Q31.7813,820.9375 31.9219,820.8594 Q32.0781,820.7813 32.2813,820.7813 Q32.6094,820.7813 32.8594,821.0469 Q33.125,821.2969 33.125,821.6406 Q33.125,821.9844 32.7813,822.3906 Q32.2813,822.9688 31.4844,823.2969 Q30.4063,823.75 29.1094,823.75 Q27.5938,823.75 26.3906,823.125 Q25.4063,822.625 24.7188,821.5625 Q24.0313,820.4844 24.0313,819.2031 L24.0313,818.0469 Q24.0313,816.7188 24.6406,815.5781 Q25.2656,814.4219 26.3594,813.8125 Q27.4531,813.1875 28.6875,813.1875 Q29.4219,813.1875 30.0625,813.3594 Q30.7188,813.5156 31.2656,813.875 Z " fill="#000000"/><text fill="#000000" font-family="sans-serif" font-size="14" lengthAdjust="spacing" textLength="188" x="42.5" y="823.7285">spacerover.obstacle.Obstacle</text><line style="stroke:#181818;stroke-width:0.5;" x1="14.5" x2="232.5" y1="834" y2="834"/><text fill="#000000" font-family="sans-serif" font-size="14" lengthAdjust="spacing" textLength="38" x="19.5" y="852.5332">image</text><text fill="#000000" font-family="sans-serif" font-size="14" lengthAdjust="spacing" textLength="109" x="19.5" y="870.1426">pygame_wrapper</text><text fill="#000000" font-family="sans-serif" font-size="14" lengthAdjust="spacing" textLength="24" x="19.5" y="887.752">rect</text><text fill="#000000" font-family="sans-serif" font-size="14" lengthAdjust="spacing" textLength="66" x="19.5" y="905.3613">type : type</text><line style="stroke:#181818;stroke-width:0.5;" x1="14.5" x2="232.5" y1="912.4375" y2="912.4375"/><text fill="#000000" font-family="sans-serif" font-size="14" lengthAdjust="spacing" textLength="83" x="19.5" y="930.9707">draw(screen)</text></g><!--MD5=[4395440ffbf57deb6e5d4201acbbed9f]
class spacerover.pygame_wrapper.PygameWrapper--><g id="elem_spacerover.pygame_wrapper.PygameWrapper"><rect codeLine="55" fill="#F1F1F1" height="593.8906" id="spacerover.pygame_wrapper.PygameWrapper" rx="2.5" ry="2.5" style="stroke:#181818;stroke-width:0.5;" width="642" x="1001.5" y="573"/><ellipse cx="1171.25" cy="589" fill="#ADD1B2" rx="11" ry="11" style="stroke:#181818;stroke-width:1.0;"/><path d="M1174.0156,584.875 Q1174.1719,584.6563 1174.3594,584.5469 Q1174.5469,584.4375 1174.7656,584.4375 Q1175.1406,584.4375 1175.375,584.7031 Q1175.6094,584.9531 1175.6094,585.5625 L1175.6094,587.0156 Q1175.6094,587.625 1175.375,587.8906 Q1175.1406,588.1563 1174.7656,588.1563 Q1174.4219,588.1563 1174.2188,587.9531 Q1174.0156,587.7656 1173.9063,587.25 Q1173.8594,586.8906 1173.6719,586.7031 Q1173.3438,586.3281 1172.7344,586.1094 Q1172.125,585.8906 1171.5,585.8906 Q1170.7344,585.8906 1170.0938,586.2188 Q1169.4688,586.5469 1168.9688,587.2969 Q1168.4844,588.0469 1168.4844,589.0781 L1168.4844,590.1719 Q1168.4844,591.4063 1169.375,592.2344 Q1170.2656,593.0469 1171.8594,593.0469 Q1172.7969,593.0469 1173.4531,592.7969 Q1173.8438,592.6406 1174.2656,592.2031 Q1174.5313,591.9375 1174.6719,591.8594 Q1174.8281,591.7813 1175.0313,591.7813 Q1175.3594,591.7813 1175.6094,592.0469 Q1175.875,592.2969 1175.875,592.6406 Q1175.875,592.9844 1175.5313,593.3906 Q1175.0313,593.9688 1174.2344,594.2969 Q1173.1563,594.75 1171.8594,594.75 Q1170.3438,594.75 1169.1406,594.125 Q1168.1563,593.625 1167.4688,592.5625 Q1166.7813,591.4844 1166.7813,590.2031 L1166.7813,589.0469 Q1166.7813,587.7188 1167.3906,586.5781 Q1168.0156,585.4219 1169.1094,584.8125 Q1170.2031,584.1875 1171.4375,584.1875 Q1172.1719,584.1875 1172.8125,584.3594 Q1173.4688,584.5156 1174.0156,584.875 Z " fill="#000000"/><text fill="#000000" font-family="sans-serif" font-size="14" lengthAdjust="spacing" textLength="294" x="1191.75" y="594.7285">spacerover.pygame_wrapper.PygameWrapper</text><line style="stroke:#181818;stroke-width:0.5;" x1="1002.5" x2="1642.5" y1="605" y2="605"/><text fill="#000000" font-family="sans-serif" font-size="14" lengthAdjust="spacing" textLength="70" x="1007.5" y="623.5332">Coordinate</text><text fill="#000000" font-family="sans-serif" font-size="14" lengthAdjust="spacing" textLength="38" x="1007.5" y="641.1426">key_a</text><text fill="#000000" font-family="sans-serif" font-size="14" lengthAdjust="spacing" textLength="38" x="1007.5" y="658.752">key_d</text><text fill="#000000" font-family="sans-serif" font-size="14" lengthAdjust="spacing" textLength="63" x="1007.5" y="676.3613">key_down</text><text fill="#000000" font-family="sans-serif" font-size="14" lengthAdjust="spacing" textLength="49" x="1007.5" y="693.9707">key_left</text><text fill="#000000" font-family="sans-serif" font-size="14" lengthAdjust="spacing" textLength="58" x="1007.5" y="711.5801">key_right</text><text fill="#000000" font-family="sans-serif" font-size="14" lengthAdjust="spacing" textLength="37" x="1007.5" y="729.1895">key_s</text><text fill="#000000" font-family="sans-serif" font-size="14" lengthAdjust="spacing" textLength="46" x="1007.5" y="746.7988">key_up</text><text fill="#000000" font-family="sans-serif" font-size="14" lengthAdjust="spacing" textLength="39" x="1007.5" y="764.4082">key_w</text><line style="stroke:#181818;stroke-width:0.5;" x1="1002.5" x2="1642.5" y1="771.4844" y2="771.4844"/><text fill="#000000" font-family="sans-serif" font-size="14" lengthAdjust="spacing" textLength="45" x="1007.5" y="790.0176">Clock()</text><text fill="#000000" font-family="sans-serif" font-size="14" lengthAdjust="spacing" textLength="313" x="1007.5" y="807.627">Rect(left: float, top: float, width: float, height: float)</text><text fill="#000000" font-family="sans-serif" font-size="14" lengthAdjust="spacing" textLength="630" x="1007.5" y="825.2363">create_button(button_location_left: int, button_location_top: int, button_width: int, button_height: int)</text><text fill="#000000" font-family="sans-serif" font-size="14" lengthAdjust="spacing" textLength="211" x="1007.5" y="842.8457">create_font(font: str, fontSize: int)</text><text fill="#000000" font-family="sans-serif" font-size="14" lengthAdjust="spacing" textLength="80" x="1007.5" y="860.4551">display_flip()</text><text fill="#000000" font-family="sans-serif" font-size="14" lengthAdjust="spacing" textLength="226" x="1007.5" y="878.0645">display_set_mode(size: Coordinate)</text><text fill="#000000" font-family="sans-serif" font-size="14" lengthAdjust="spacing" textLength="106" x="1007.5" y="895.6738">display_update()</text><text fill="#000000" font-family="sans-serif" font-size="14" lengthAdjust="spacing" textLength="198" x="1007.5" y="913.2832">draw_rect(color, rect, width: int)</text><text fill="#000000" font-family="sans-serif" font-size="14" lengthAdjust="spacing" textLength="73" x="1007.5" y="930.8926">get_event()</text><text fill="#000000" font-family="sans-serif" font-size="14" lengthAdjust="spacing" textLength="169" x="1007.5" y="948.502">get_event_type_kescape()</text><text fill="#000000" font-family="sans-serif" font-size="14" lengthAdjust="spacing" textLength="171" x="1007.5" y="966.1113">get_event_type_keydown()</text><text fill="#000000" font-family="sans-serif" font-size="14" lengthAdjust="spacing" textLength="231" x="1007.5" y="983.7207">get_event_type_mousebuttondown()</text><text fill="#000000" font-family="sans-serif" font-size="14" lengthAdjust="spacing" textLength="139" x="1007.5" y="1001.3301">get_event_type_quit()</text><text fill="#000000" font-family="sans-serif" font-size="14" lengthAdjust="spacing" textLength="119" x="1007.5" y="1018.9395">get_key_pressed()</text><text fill="#000000" font-family="sans-serif" font-size="14" lengthAdjust="spacing" textLength="137" x="1007.5" y="1036.5488">get_mouse_position()</text><text fill="#000000" font-family="sans-serif" font-size="14" lengthAdjust="spacing" textLength="181" x="1007.5" y="1054.1582">load_image(image_path: str)</text><text fill="#000000" font-family="sans-serif" font-size="14" lengthAdjust="spacing" textLength="33" x="1007.5" y="1071.7676">quit()</text><text fill="#000000" font-family="sans-serif" font-size="14" lengthAdjust="spacing" textLength="76" x="1007.5" y="1089.377">quit_game()</text><text fill="#000000" font-family="sans-serif" font-size="14" lengthAdjust="spacing" textLength="174" x="1007.5" y="1106.9863">rotate_image(image, angle)</text><text fill="#000000" font-family="sans-serif" font-size="14" lengthAdjust="spacing" textLength="235" x="1007.5" y="1124.5957">set_window_caption(window_title: str)</text><text fill="#000000" font-family="sans-serif" font-size="14" lengthAdjust="spacing" textLength="281" x="1007.5" y="1142.2051">transform_background_image(image, factor)</text><text fill="#000000" font-family="sans-serif" font-size="14" lengthAdjust="spacing" textLength="198" x="1007.5" y="1159.8145">transform_image(image, factor)</text></g><!--MD5=[822cf845bbbf659ab44bea905a9ef2b0]
class spacerover.rover.Rover--><g id="elem_spacerover.rover.Rover"><rect codeLine="88" fill="#F1F1F1" height="470.625" id="spacerover.rover.Rover" rx="2.5" ry="2.5" style="stroke:#181818;stroke-width:0.5;" width="335" x="631" y="634.5"/><ellipse cx="719.25" cy="650.5" fill="#ADD1B2" rx="11" ry="11" style="stroke:#181818;stroke-width:1.0;"/><path d="M722.0156,646.375 Q722.1719,646.1563 722.3594,646.0469 Q722.5469,645.9375 722.7656,645.9375 Q723.1406,645.9375 723.375,646.2031 Q723.6094,646.4531 723.6094,647.0625 L723.6094,648.5156 Q723.6094,649.125 723.375,649.3906 Q723.1406,649.6563 722.7656,649.6563 Q722.4219,649.6563 722.2188,649.4531 Q722.0156,649.2656 721.9063,648.75 Q721.8594,648.3906 721.6719,648.2031 Q721.3438,647.8281 720.7344,647.6094 Q720.125,647.3906 719.5,647.3906 Q718.7344,647.3906 718.0938,647.7188 Q717.4688,648.0469 716.9688,648.7969 Q716.4844,649.5469 716.4844,650.5781 L716.4844,651.6719 Q716.4844,652.9063 717.375,653.7344 Q718.2656,654.5469 719.8594,654.5469 Q720.7969,654.5469 721.4531,654.2969 Q721.8438,654.1406 722.2656,653.7031 Q722.5313,653.4375 722.6719,653.3594 Q722.8281,653.2813 723.0313,653.2813 Q723.3594,653.2813 723.6094,653.5469 Q723.875,653.7969 723.875,654.1406 Q723.875,654.4844 723.5313,654.8906 Q723.0313,655.4688 722.2344,655.7969 Q721.1563,656.25 719.8594,656.25 Q718.3438,656.25 717.1406,655.625 Q716.1563,655.125 715.4688,654.0625 Q714.7813,652.9844 714.7813,651.7031 L714.7813,650.5469 Q714.7813,649.2188 715.3906,648.0781 Q716.0156,646.9219 717.1094,646.3125 Q718.2031,645.6875 719.4375,645.6875 Q720.1719,645.6875 720.8125,645.8594 Q721.4688,646.0156 722.0156,646.375 Z " fill="#000000"/><text fill="#000000" font-family="sans-serif" font-size="14" lengthAdjust="spacing" textLength="150" x="739.75" y="656.2285">spacerover.rover.Rover</text><line style="stroke:#181818;stroke-width:0.5;" x1="632" x2="965" y1="666.5" y2="666.5"/><text fill="#000000" font-family="sans-serif" font-size="14" lengthAdjust="spacing" textLength="54" x="637" y="685.0332">direction</text><text fill="#000000" font-family="sans-serif" font-size="14" lengthAdjust="spacing" textLength="61" x="637" y="702.6426">directions</text><text fill="#000000" font-family="sans-serif" font-size="14" lengthAdjust="spacing" textLength="115" x="637" y="720.252">endpoint_reached</text><text fill="#000000" font-family="sans-serif" font-size="14" lengthAdjust="spacing" textLength="154" x="637" y="737.8613">endpoint_reached : bool</text><text fill="#000000" font-family="sans-serif" font-size="14" lengthAdjust="spacing" textLength="38" x="637" y="755.4707">image</text><text fill="#000000" font-family="sans-serif" font-size="14" lengthAdjust="spacing" textLength="109" x="637" y="773.0801">pygame_wrapper</text><text fill="#000000" font-family="sans-serif" font-size="14" lengthAdjust="spacing" textLength="24" x="637" y="790.6895">rect</text><text fill="#000000" font-family="sans-serif" font-size="14" lengthAdjust="spacing" textLength="66" x="637" y="808.2988">speed : int</text><line style="stroke:#181818;stroke-width:0.5;" x1="632" x2="965" y1="815.375" y2="815.375"/><text fill="#000000" font-family="sans-serif" font-size="14" lengthAdjust="spacing" textLength="143" x="637" y="833.9082">hit_endpoint(endpoint)</text><text fill="#000000" font-family="sans-serif" font-size="14" lengthAdjust="spacing" textLength="210" x="637" y="851.5176">keys_move_down_pressed(keys)</text><text fill="#000000" font-family="sans-serif" font-size="14" lengthAdjust="spacing" textLength="196" x="637" y="869.127">keys_move_left_pressed(keys)</text><text fill="#000000" font-family="sans-serif" font-size="14" lengthAdjust="spacing" textLength="205" x="637" y="886.7363">keys_move_right_pressed(keys)</text><text fill="#000000" font-family="sans-serif" font-size="14" lengthAdjust="spacing" textLength="193" x="637" y="904.3457">keys_move_up_pressed(keys)</text><text fill="#000000" font-family="sans-serif" font-size="14" lengthAdjust="spacing" textLength="323" x="637" y="921.9551">listen_to_movement(endpoint, obstacles: Obstacle)</text><text fill="#000000" font-family="sans-serif" font-size="14" lengthAdjust="spacing" textLength="213" x="637" y="939.5645">move_down(collide_list, endpoint)</text><text fill="#000000" font-family="sans-serif" font-size="14" lengthAdjust="spacing" textLength="199" x="637" y="957.1738">move_left(collide_list, endpoint)</text><text fill="#000000" font-family="sans-serif" font-size="14" lengthAdjust="spacing" textLength="290" x="637" y="974.7832">move_possible_right(obstacles, new_position)</text><text fill="#000000" font-family="sans-serif" font-size="14" lengthAdjust="spacing" textLength="282" x="637" y="992.3926">move_possible_top(obstacles, new_position)</text><text fill="#000000" font-family="sans-serif" font-size="14" lengthAdjust="spacing" textLength="208" x="637" y="1010.002">move_right(collide_list, endpoint)</text><text fill="#000000" font-family="sans-serif" font-size="14" lengthAdjust="spacing" textLength="196" x="637" y="1027.6113">move_up(collide_list, endpoint)</text><text fill="#000000" font-family="sans-serif" font-size="14" lengthAdjust="spacing" textLength="134" x="637" y="1045.2207">rotate_image_down()</text><text fill="#000000" font-family="sans-serif" font-size="14" lengthAdjust="spacing" textLength="120" x="637" y="1062.8301">rotate_image_left()</text><text fill="#000000" font-family="sans-serif" font-size="14" lengthAdjust="spacing" textLength="129" x="637" y="1080.4395">rotate_image_right()</text><text fill="#000000" font-family="sans-serif" font-size="14" lengthAdjust="spacing" textLength="117" x="637" y="1098.0488">rotate_image_up()</text></g><!--MD5=[0fa6fc95b2be70a1b36c181a0941a3a9]
class spacerover.rover.Rover.directions--><g id="elem_spacerover.rover.Rover.directions"><rect codeLine="114" fill="#F1F1F1" height="118.4375" id="spacerover.rover.Rover.directions" rx="2.5" ry="2.5" style="stroke:#181818;stroke-width:0.5;" width="205" x="569" y="192"/><ellipse cx="584" cy="208" fill="#ADD1B2" rx="11" ry="11" style="stroke:#181818;stroke-width:1.0;"/><path d="M586.7656,203.875 Q586.9219,203.6563 587.1094,203.5469 Q587.2969,203.4375 587.5156,203.4375 Q587.8906,203.4375 588.125,203.7031 Q588.3594,203.9531 588.3594,204.5625 L588.3594,206.0156 Q588.3594,206.625 588.125,206.8906 Q587.8906,207.1563 587.5156,207.1563 Q587.1719,207.1563 586.9688,206.9531 Q586.7656,206.7656 586.6563,206.25 Q586.6094,205.8906 586.4219,205.7031 Q586.0938,205.3281 585.4844,205.1094 Q584.875,204.8906 584.25,204.8906 Q583.4844,204.8906 582.8438,205.2188 Q582.2188,205.5469 581.7188,206.2969 Q581.2344,207.0469 581.2344,208.0781 L581.2344,209.1719 Q581.2344,210.4063 582.125,211.2344 Q583.0156,212.0469 584.6094,212.0469 Q585.5469,212.0469 586.2031,211.7969 Q586.5938,211.6406 587.0156,211.2031 Q587.2813,210.9375 587.4219,210.8594 Q587.5781,210.7813 587.7813,210.7813 Q588.1094,210.7813 588.3594,211.0469 Q588.625,211.2969 588.625,211.6406 Q588.625,211.9844 588.2813,212.3906 Q587.7813,212.9688 586.9844,213.2969 Q585.9063,213.75 584.6094,213.75 Q583.0938,213.75 581.8906,213.125 Q580.9063,212.625 580.2188,211.5625 Q579.5313,210.4844 579.5313,209.2031 L579.5313,208.0469 Q579.5313,206.7188 580.1406,205.5781 Q580.7656,204.4219 581.8594,203.8125 Q582.9531,203.1875 584.1875,203.1875 Q584.9219,203.1875 585.5625,203.3594 Q586.2188,203.5156 586.7656,203.875 Z " fill="#000000"/><text fill="#000000" font-family="sans-serif" font-size="14" lengthAdjust="spacing" textLength="173" x="598" y="213.7285">spacerover.rover.directions</text><line style="stroke:#181818;stroke-width:0.5;" x1="570" x2="773" y1="224" y2="224"/><text fill="#000000" font-family="sans-serif" font-size="14" lengthAdjust="spacing" textLength="33" x="575" y="242.5332">down</text><text fill="#000000" font-family="sans-serif" font-size="14" lengthAdjust="spacing" textLength="19" x="575" y="260.1426">left</text><text fill="#000000" font-family="sans-serif" font-size="14" lengthAdjust="spacing" textLength="28" x="575" y="277.752">right</text><text fill="#000000" font-family="sans-serif" font-size="14" lengthAdjust="spacing" textLength="16" x="575" y="295.3613">up</text><line style="stroke:#181818;stroke-width:0.5;" x1="570" x2="773" y1="302.4375" y2="302.4375"/></g><!--MD5=[45503b1b92e16af583a7bdd3fc6c060a]
link spacerover.rover.Rover.directions to .EnumMeta--><g id="link_spacerover.rover.Rover.directions_.EnumMeta"><path codeLine="120" d="M659.55,310.05 C634.22,433.11 575.62,717.81 553.33,826.12 " fill="none" id="spacerover.rover.Rover.directions-to-.EnumMeta" style="stroke:#181818;stroke-width:1.0;"/><polygon fill="none" points="560.15,827.71,549.26,845.88,546.43,824.88,560.15,827.71" style="stroke:#181818;stroke-width:1.0;"/></g><!--MD5=[c475b7960a961dfec9d6c8cd422b54c6]
link .Union to spacerover.pygame_wrapper.PygameWrapper--><g id="link_.Union_spacerover.pygame_wrapper.PygameWrapper"><path codeLine="121" d="M1322.5,275.06 C1322.5,323.56 1322.5,441.41 1322.5,559.46 " fill="none" id=".Union-to-spacerover.pygame_wrapper.PygameWrapper" style="stroke:#181818;stroke-width:1.0;"/><polygon fill="#181818" points="1322.5,572.74,1326.5,566.74,1322.5,560.74,1318.5,566.74,1322.5,572.74" style="stroke:#181818;stroke-width:1.0;"/><text fill="#000000" font-family="sans-serif" font-size="13" lengthAdjust="spacing" textLength="62" x="1323.5" y="539.4951">Coordinate</text></g><!--MD5=[6a65aa1674e81cc176daae3c8a93f6d3]
link spacerover.rover.Rover.directions to spacerover.rover.Rover--><g id="link_spacerover.rover.Rover.directions_spacerover.rover.Rover"><path codeLine="122" d="M683.45,310.05 C698.15,381.47 724.05,507.32 747.57,621.55 " fill="none" id="spacerover.rover.Rover.directions-to-spacerover.rover.Rover" style="stroke:#181818;stroke-width:1.0;"/><polygon fill="#181818" points="750.2,634.34,752.9111,627.6579,747.7857,622.5854,745.0747,629.2674,750.2,634.34" style="stroke:#181818;stroke-width:1.0;"/><text fill="#000000" font-family="sans-serif" font-size="13" lengthAdjust="spacing" textLength="56" x="732.5" y="539.4951">directions</text></g><!--MD5=[5233c1902c67fdaec2ddcf45fd066708]
@startuml classes
set namespaceSeparator none
class ".EnumMeta" as .EnumMeta {
}
class ".Union" as .Union {
}
class "spacerover.level_one.LevelOne" as spacerover.level_one.LevelOne {
  TEXT_COL : tuple
  background_image
  background_image
  cols : int
  endpoint_image
  endpoint_image_rect
  font
  game_paused : bool
  obstacles : list
  pygame_wrapper
  rover
  rows : int
  screen
  screen_height
  screen_width
  startpoint_image
  startpoint_image_rect
  titleFont
  window_title
  draw_obstacles()
  draw_text(text, font, text_col, x, y)
  load_endpoint()
  load_obstacles()
  load_startpoint()
  open()
}
class "spacerover.main_menu.MainMenu" as spacerover.main_menu.MainMenu {
  buttonLocationLeft
  buttonLocationQuitTop
  buttonLocationStartTop
  font
  pygame_wrapper
  screen
  screen_height
  screen_width
  titleFont
  draw_text(text, font, color, surface, x, y)
  game()
  open()
  options()
}
class "spacerover.obstacle.Obstacle" as spacerover.obstacle.Obstacle {
  image
  pygame_wrapper
  rect
  type : type
  draw(screen)
}
class "spacerover.pygame_wrapper.PygameWrapper" as spacerover.pygame_wrapper.PygameWrapper {
  Coordinate
  key_a
  key_d
  key_down
  key_left
  key_right
  key_s
  key_up
  key_w
  Clock()
  Rect(left: float, top: float, width: float, height: float)
  create_button(button_location_left: int, button_location_top: int, button_width: int, button_height: int)
  create_font(font: str, fontSize: int)
  display_flip()
  display_set_mode(size: Coordinate)
  display_update()
  draw_rect(color, rect, width: int)
  get_event()
  get_event_type_kescape()
  get_event_type_keydown()
  get_event_type_mousebuttondown()
  get_event_type_quit()
  get_key_pressed()
  get_mouse_position()
  load_image(image_path: str)
  quit()
  quit_game()
  rotate_image(image, angle)
  set_window_caption(window_title: str)
  transform_background_image(image, factor)
  transform_image(image, factor)
}
class "spacerover.rover.Rover" as spacerover.rover.Rover {
  direction
  directions
  endpoint_reached
  endpoint_reached : bool
  image
  pygame_wrapper
  rect
  speed : int
  hit_endpoint(endpoint)
  keys_move_down_pressed(keys)
  keys_move_left_pressed(keys)
  keys_move_right_pressed(keys)
  keys_move_up_pressed(keys)
  listen_to_movement(endpoint, obstacles: Obstacle)
  move_down(collide_list, endpoint)
  move_left(collide_list, endpoint)
  move_possible_right(obstacles, new_position)
  move_possible_top(obstacles, new_position)
  move_right(collide_list, endpoint)
  move_up(collide_list, endpoint)
  rotate_image_down()
  rotate_image_left()
  rotate_image_right()
  rotate_image_up()
}
class "spacerover.rover.directions" as spacerover.rover.Rover.directions {
  down
  left
  right
  up
}
spacerover.rover.Rover.directions - -|> .EnumMeta
.Union - -* spacerover.pygame_wrapper.PygameWrapper : Coordinate
spacerover.rover.Rover.directions - -* spacerover.rover.Rover : directions
@enduml

PlantUML version 1.2022.7(Mon Aug 22 19:01:30 CEST 2022)
(GPL source distribution)
Java Runtime: Java(TM) SE Runtime Environment
JVM: Java HotSpot(TM) 64-Bit Server VM
Default Encoding: UTF-8
Language: en
Country: US
--></g></svg>