<?xml version="1.0" encoding="UTF-8" standalone="no"?><svg xmlns="http://www.w3.org/2000/svg" xmlns:xlink="http://www.w3.org/1999/xlink" contentStyleType="text/css" height="775px" preserveAspectRatio="none" style="width:977px;height:775px;background:#FFFFFF;" version="1.1" viewBox="0 0 977 775" width="977px" zoomAndPan="magnify"><defs/><g><ellipse cx="487" cy="20" fill="#222222" rx="10" ry="10" style="stroke:#222222;stroke-width:1.0;"/><rect fill="#F1F1F1" height="35.0938" rx="12.5" ry="12.5" style="stroke:#181818;stroke-width:0.5;" width="116" x="429" y="50"/><text fill="#000000" font-family="sans-serif" font-size="12" lengthAdjust="spacing" textLength="96" x="439" y="72.457">Initialize level one</text><rect fill="#F1F1F1" height="35.0938" rx="12.5" ry="12.5" style="stroke:#181818;stroke-width:0.5;" width="107" x="433.5" y="166.9297"/><text fill="#000000" font-family="sans-serif" font-size="12" lengthAdjust="spacing" textLength="87" x="443.5" y="189.3867">get key pressed</text><polygon fill="#F1F1F1" points="475,222.0234,499,222.0234,511,234.0234,499,246.0234,475,246.0234,463,234.0234,475,222.0234" style="stroke:#181818;stroke-width:0.5;"/><text fill="#000000" font-family="sans-serif" font-size="11" lengthAdjust="spacing" textLength="17" x="478.5" y="238.5244">key</text><rect fill="#F1F1F1" height="35.0938" rx="12.5" ry="12.5" style="stroke:#181818;stroke-width:0.5;" width="113" x="75" y="381.5313"/><text fill="#000000" font-family="sans-serif" font-size="12" lengthAdjust="spacing" textLength="93" x="85" y="403.9883">Rotate Image Up</text><polygon fill="#F1F1F1" points="86,332.6133,177,332.6133,189,344.6133,177,356.6133,86,356.6133,74,344.6133,86,332.6133" style="stroke:#181818;stroke-width:0.5;"/><text fill="#000000" font-family="sans-serif" font-size="11" lengthAdjust="spacing" textLength="19" x="135.5" y="368.0322">true</text><text fill="#000000" font-family="sans-serif" font-size="11" lengthAdjust="spacing" textLength="91" x="86" y="349.1143">Rotation Required?</text><text fill="#000000" font-family="sans-serif" font-size="11" lengthAdjust="spacing" textLength="24" x="189" y="342.1963">false</text><polygon fill="#F1F1F1" points="131.5,436.625,143.5,448.625,131.5,460.625,119.5,448.625,131.5,436.625" style="stroke:#181818;stroke-width:0.5;"/><rect fill="#F1F1F1" height="35.0938" rx="12.5" ry="12.5" style="stroke:#181818;stroke-width:0.5;" width="67" x="98" y="480.625"/><text fill="#000000" font-family="sans-serif" font-size="12" lengthAdjust="spacing" textLength="47" x="108" y="503.082">Move Up</text><rect fill="#98FB98" height="35.0938" rx="12.5" ry="12.5" style="stroke:#181818;stroke-width:0.5;" width="173" x="45" y="584.6367"/><text fill="#000000" font-family="sans-serif" font-size="12" lengthAdjust="spacing" textLength="17" x="55" y="607.0938">set</text><text fill="#000000" font-family="sans-serif" font-size="12" font-weight="bold" lengthAdjust="spacing" textLength="96" x="75" y="607.0938">enpoint_reached</text><text fill="#000000" font-family="sans-serif" font-size="12" lengthAdjust="spacing" textLength="34" x="174" y="607.0938">to true</text><polygon fill="#F1F1F1" points="86.5,535.7188,176.5,535.7188,188.5,547.7188,176.5,559.7188,86.5,559.7188,74.5,547.7188,86.5,535.7188" style="stroke:#181818;stroke-width:0.5;"/><text fill="#000000" font-family="sans-serif" font-size="11" lengthAdjust="spacing" textLength="19" x="135.5" y="571.1377">true</text><text fill="#000000" font-family="sans-serif" font-size="11" lengthAdjust="spacing" textLength="90" x="86.5" y="552.2197">endpoint rechaed?</text><text fill="#000000" font-family="sans-serif" font-size="11" lengthAdjust="spacing" textLength="24" x="188.5" y="545.3018">false</text><polygon fill="#F1F1F1" points="131.5,639.7305,143.5,651.7305,131.5,663.7305,119.5,651.7305,131.5,639.7305" style="stroke:#181818;stroke-width:0.5;"/><polygon fill="#F1F1F1" points="86.5,283.6953,176.5,283.6953,188.5,295.6953,176.5,307.6953,86.5,307.6953,74.5,295.6953,86.5,283.6953" style="stroke:#181818;stroke-width:0.5;"/><text fill="#000000" font-family="sans-serif" font-size="11" lengthAdjust="spacing" textLength="19" x="135.5" y="319.1143">true</text><text fill="#000000" font-family="sans-serif" font-size="11" lengthAdjust="spacing" textLength="90" x="86.5" y="300.1963">move up possible?</text><text fill="#000000" font-family="sans-serif" font-size="11" lengthAdjust="spacing" textLength="24" x="188.5" y="293.2783">false</text><polygon fill="#F1F1F1" points="131.5,683.7305,143.5,695.7305,131.5,707.7305,119.5,695.7305,131.5,683.7305" style="stroke:#181818;stroke-width:0.5;"/><rect fill="#F1F1F1" height="35.0938" rx="12.5" ry="12.5" style="stroke:#181818;stroke-width:0.5;" width="129" x="282" y="381.5313"/><text fill="#000000" font-family="sans-serif" font-size="12" lengthAdjust="spacing" textLength="109" x="292" y="403.9883">Rotate Image Down</text><polygon fill="#F1F1F1" points="301,332.6133,392,332.6133,404,344.6133,392,356.6133,301,356.6133,289,344.6133,301,332.6133" style="stroke:#181818;stroke-width:0.5;"/><text fill="#000000" font-family="sans-serif" font-size="11" lengthAdjust="spacing" textLength="19" x="350.5" y="368.0322">true</text><text fill="#000000" font-family="sans-serif" font-size="11" lengthAdjust="spacing" textLength="91" x="301" y="349.1143">Rotation Required?</text><text fill="#000000" font-family="sans-serif" font-size="11" lengthAdjust="spacing" textLength="24" x="404" y="342.1963">false</text><polygon fill="#F1F1F1" points="346.5,436.625,358.5,448.625,346.5,460.625,334.5,448.625,346.5,436.625" style="stroke:#181818;stroke-width:0.5;"/><rect fill="#F1F1F1" height="35.0938" rx="12.5" ry="12.5" style="stroke:#181818;stroke-width:0.5;" width="83" x="305" y="480.625"/><text fill="#000000" font-family="sans-serif" font-size="12" lengthAdjust="spacing" textLength="63" x="315" y="503.082">Move Down</text><rect fill="#98FB98" height="35.0938" rx="12.5" ry="12.5" style="stroke:#181818;stroke-width:0.5;" width="173" x="260" y="584.6367"/><text fill="#000000" font-family="sans-serif" font-size="12" lengthAdjust="spacing" textLength="17" x="270" y="607.0938">set</text><text fill="#000000" font-family="sans-serif" font-size="12" font-weight="bold" lengthAdjust="spacing" textLength="96" x="290" y="607.0938">enpoint_reached</text><text fill="#000000" font-family="sans-serif" font-size="12" lengthAdjust="spacing" textLength="34" x="389" y="607.0938">to true</text><polygon fill="#F1F1F1" points="301.5,535.7188,391.5,535.7188,403.5,547.7188,391.5,559.7188,301.5,559.7188,289.5,547.7188,301.5,535.7188" style="stroke:#181818;stroke-width:0.5;"/><text fill="#000000" font-family="sans-serif" font-size="11" lengthAdjust="spacing" textLength="19" x="350.5" y="571.1377">true</text><text fill="#000000" font-family="sans-serif" font-size="11" lengthAdjust="spacing" textLength="90" x="301.5" y="552.2197">endpoint rechaed?</text><text fill="#000000" font-family="sans-serif" font-size="11" lengthAdjust="spacing" textLength="24" x="403.5" y="545.3018">false</text><polygon fill="#F1F1F1" points="346.5,639.7305,358.5,651.7305,346.5,663.7305,334.5,651.7305,346.5,639.7305" style="stroke:#181818;stroke-width:0.5;"/><polygon fill="#F1F1F1" points="293.5,283.6953,399.5,283.6953,411.5,295.6953,399.5,307.6953,293.5,307.6953,281.5,295.6953,293.5,283.6953" style="stroke:#181818;stroke-width:0.5;"/><text fill="#000000" font-family="sans-serif" font-size="11" lengthAdjust="spacing" textLength="19" x="350.5" y="319.1143">true</text><text fill="#000000" font-family="sans-serif" font-size="11" lengthAdjust="spacing" textLength="106" x="293.5" y="300.1963">move down possible?</text><text fill="#000000" font-family="sans-serif" font-size="11" lengthAdjust="spacing" textLength="24" x="411.5" y="293.2783">false</text><polygon fill="#F1F1F1" points="346.5,683.7305,358.5,695.7305,346.5,707.7305,334.5,695.7305,346.5,683.7305" style="stroke:#181818;stroke-width:0.5;"/><rect fill="#F1F1F1" height="35.0938" rx="12.5" ry="12.5" style="stroke:#181818;stroke-width:0.5;" width="117" x="545" y="381.5313"/><text fill="#000000" font-family="sans-serif" font-size="12" lengthAdjust="spacing" textLength="97" x="555" y="403.9883">Rotate Image Left</text><polygon fill="#F1F1F1" points="558,332.6133,649,332.6133,661,344.6133,649,356.6133,558,356.6133,546,344.6133,558,332.6133" style="stroke:#181818;stroke-width:0.5;"/><text fill="#000000" font-family="sans-serif" font-size="11" lengthAdjust="spacing" textLength="19" x="607.5" y="368.0322">true</text><text fill="#000000" font-family="sans-serif" font-size="11" lengthAdjust="spacing" textLength="91" x="558" y="349.1143">Rotation Required?</text><text fill="#000000" font-family="sans-serif" font-size="11" lengthAdjust="spacing" textLength="24" x="661" y="342.1963">false</text><polygon fill="#F1F1F1" points="603.5,436.625,615.5,448.625,603.5,460.625,591.5,448.625,603.5,436.625" style="stroke:#181818;stroke-width:0.5;"/><rect fill="#F1F1F1" height="35.0938" rx="12.5" ry="12.5" style="stroke:#181818;stroke-width:0.5;" width="71" x="568" y="480.625"/><text fill="#000000" font-family="sans-serif" font-size="12" lengthAdjust="spacing" textLength="51" x="578" y="503.082">Move Left</text><rect fill="#98FB98" height="35.0938" rx="12.5" ry="12.5" style="stroke:#181818;stroke-width:0.5;" width="173" x="517" y="584.6367"/><text fill="#000000" font-family="sans-serif" font-size="12" lengthAdjust="spacing" textLength="17" x="527" y="607.0938">set</text><text fill="#000000" font-family="sans-serif" font-size="12" font-weight="bold" lengthAdjust="spacing" textLength="96" x="547" y="607.0938">enpoint_reached</text><text fill="#000000" font-family="sans-serif" font-size="12" lengthAdjust="spacing" textLength="34" x="646" y="607.0938">to true</text><polygon fill="#F1F1F1" points="558.5,535.7188,648.5,535.7188,660.5,547.7188,648.5,559.7188,558.5,559.7188,546.5,547.7188,558.5,535.7188" style="stroke:#181818;stroke-width:0.5;"/><text fill="#000000" font-family="sans-serif" font-size="11" lengthAdjust="spacing" textLength="19" x="607.5" y="571.1377">true</text><text fill="#000000" font-family="sans-serif" font-size="11" lengthAdjust="spacing" textLength="90" x="558.5" y="552.2197">endpoint rechaed?</text><text fill="#000000" font-family="sans-serif" font-size="11" lengthAdjust="spacing" textLength="24" x="660.5" y="545.3018">false</text><polygon fill="#F1F1F1" points="603.5,639.7305,615.5,651.7305,603.5,663.7305,591.5,651.7305,603.5,639.7305" style="stroke:#181818;stroke-width:0.5;"/><polygon fill="#F1F1F1" points="557,283.6953,650,283.6953,662,295.6953,650,307.6953,557,307.6953,545,295.6953,557,283.6953" style="stroke:#181818;stroke-width:0.5;"/><text fill="#000000" font-family="sans-serif" font-size="11" lengthAdjust="spacing" textLength="19" x="607.5" y="319.1143">true</text><text fill="#000000" font-family="sans-serif" font-size="11" lengthAdjust="spacing" textLength="93" x="557" y="300.1963">move left possible?</text><text fill="#000000" font-family="sans-serif" font-size="11" lengthAdjust="spacing" textLength="24" x="662" y="293.2783">false</text><polygon fill="#F1F1F1" points="603.5,683.7305,615.5,695.7305,603.5,707.7305,591.5,695.7305,603.5,683.7305" style="stroke:#181818;stroke-width:0.5;"/><rect fill="#F1F1F1" height="35.0938" rx="12.5" ry="12.5" style="stroke:#181818;stroke-width:0.5;" width="126" x="755.5" y="381.5313"/><text fill="#000000" font-family="sans-serif" font-size="12" lengthAdjust="spacing" textLength="106" x="765.5" y="403.9883">Rotate Image Right</text><polygon fill="#F1F1F1" points="773,332.6133,864,332.6133,876,344.6133,864,356.6133,773,356.6133,761,344.6133,773,332.6133" style="stroke:#181818;stroke-width:0.5;"/><text fill="#000000" font-family="sans-serif" font-size="11" lengthAdjust="spacing" textLength="19" x="822.5" y="368.0322">true</text><text fill="#000000" font-family="sans-serif" font-size="11" lengthAdjust="spacing" textLength="91" x="773" y="349.1143">Rotation Required?</text><text fill="#000000" font-family="sans-serif" font-size="11" lengthAdjust="spacing" textLength="24" x="876" y="342.1963">false</text><polygon fill="#F1F1F1" points="818.5,436.625,830.5,448.625,818.5,460.625,806.5,448.625,818.5,436.625" style="stroke:#181818;stroke-width:0.5;"/><rect fill="#F1F1F1" height="35.0938" rx="12.5" ry="12.5" style="stroke:#181818;stroke-width:0.5;" width="80" x="778.5" y="480.625"/><text fill="#000000" font-family="sans-serif" font-size="12" lengthAdjust="spacing" textLength="60" x="788.5" y="503.082">Move Right</text><rect fill="#98FB98" height="35.0938" rx="12.5" ry="12.5" style="stroke:#181818;stroke-width:0.5;" width="173" x="732" y="584.6367"/><text fill="#000000" font-family="sans-serif" font-size="12" lengthAdjust="spacing" textLength="17" x="742" y="607.0938">set</text><text fill="#000000" font-family="sans-serif" font-size="12" font-weight="bold" lengthAdjust="spacing" textLength="96" x="762" y="607.0938">enpoint_reached</text><text fill="#000000" font-family="sans-serif" font-size="12" lengthAdjust="spacing" textLength="34" x="861" y="607.0938">to true</text><polygon fill="#F1F1F1" points="773.5,535.7188,863.5,535.7188,875.5,547.7188,863.5,559.7188,773.5,559.7188,761.5,547.7188,773.5,535.7188" style="stroke:#181818;stroke-width:0.5;"/><text fill="#000000" font-family="sans-serif" font-size="11" lengthAdjust="spacing" textLength="19" x="822.5" y="571.1377">true</text><text fill="#000000" font-family="sans-serif" font-size="11" lengthAdjust="spacing" textLength="90" x="773.5" y="552.2197">endpoint rechaed?</text><text fill="#000000" font-family="sans-serif" font-size="11" lengthAdjust="spacing" textLength="24" x="875.5" y="545.3018">false</text><polygon fill="#F1F1F1" points="818.5,639.7305,830.5,651.7305,818.5,663.7305,806.5,651.7305,818.5,639.7305" style="stroke:#181818;stroke-width:0.5;"/><polygon fill="#F1F1F1" points="769,283.6953,868,283.6953,880,295.6953,868,307.6953,769,307.6953,757,295.6953,769,283.6953" style="stroke:#181818;stroke-width:0.5;"/><text fill="#000000" font-family="sans-serif" font-size="11" lengthAdjust="spacing" textLength="19" x="822.5" y="319.1143">true</text><text fill="#000000" font-family="sans-serif" font-size="11" lengthAdjust="spacing" textLength="99" x="769" y="300.1963">move right possible?</text><text fill="#000000" font-family="sans-serif" font-size="11" lengthAdjust="spacing" textLength="24" x="880" y="293.2783">false</text><polygon fill="#F1F1F1" points="818.5,683.7305,830.5,695.7305,818.5,707.7305,806.5,695.7305,818.5,683.7305" style="stroke:#181818;stroke-width:0.5;"/><polygon fill="#F1F1F1" points="487,717.7305,487,717.7305,499,729.7305,487,741.7305,487,741.7305,475,729.7305,487,717.7305" style="stroke:#181818;stroke-width:0.5;"/><polygon fill="#F1F1F1" points="440.5,105.0938,533.5,105.0938,545.5,117.0938,533.5,129.0938,440.5,129.0938,428.5,117.0938,440.5,105.0938" style="stroke:#181818;stroke-width:0.5;"/><text fill="#000000" font-family="sans-serif" font-size="11" lengthAdjust="spacing" textLength="24" x="491" y="140.5127">false</text><text fill="#000000" font-family="sans-serif" font-size="11" font-weight="bold" lengthAdjust="spacing" textLength="93" x="440.5" y="121.5947">enpoint_reached</text><text fill="#000000" font-family="sans-serif" font-size="11" lengthAdjust="spacing" textLength="19" x="409.5" y="114.6768">true</text><ellipse cx="24" cy="164.0938" fill="none" rx="11" ry="11" style="stroke:#222222;stroke-width:1.0;"/><ellipse cx="24" cy="164.0938" fill="#222222" rx="6" ry="6" style="stroke:#111111;stroke-width:1.0;"/><line style="stroke:#181818;stroke-width:1.0;" x1="487" x2="487" y1="30" y2="50"/><polygon fill="#181818" points="483,40,487,50,491,40,487,44" style="stroke:#181818;stroke-width:1.0;"/><line style="stroke:#181818;stroke-width:1.0;" x1="131.5" x2="131.5" y1="356.6133" y2="381.5313"/><polygon fill="#181818" points="127.5,371.5313,131.5,381.5313,135.5,371.5313,131.5,375.5313" style="stroke:#181818;stroke-width:1.0;"/><line style="stroke:#181818;stroke-width:1.0;" x1="189" x2="201" y1="344.6133" y2="344.6133"/><polygon fill="#181818" points="197,389.0781,201,399.0781,205,389.0781,201,393.0781" style="stroke:#181818;stroke-width:1.0;"/><line style="stroke:#181818;stroke-width:1.0;" x1="201" x2="201" y1="344.6133" y2="448.625"/><line style="stroke:#181818;stroke-width:1.0;" x1="201" x2="143.5" y1="448.625" y2="448.625"/><polygon fill="#181818" points="153.5,444.625,143.5,448.625,153.5,452.625,149.5,448.625" style="stroke:#181818;stroke-width:1.0;"/><line style="stroke:#181818;stroke-width:1.0;" x1="131.5" x2="131.5" y1="416.625" y2="436.625"/><polygon fill="#181818" points="127.5,426.625,131.5,436.625,135.5,426.625,131.5,430.625" style="stroke:#181818;stroke-width:1.0;"/><line style="stroke:#181818;stroke-width:1.0;" x1="131.5" x2="131.5" y1="460.625" y2="480.625"/><polygon fill="#181818" points="127.5,470.625,131.5,480.625,135.5,470.625,131.5,474.625" style="stroke:#181818;stroke-width:1.0;"/><line style="stroke:#181818;stroke-width:1.0;" x1="131.5" x2="131.5" y1="559.7188" y2="584.6367"/><polygon fill="#181818" points="127.5,574.6367,131.5,584.6367,135.5,574.6367,131.5,578.6367" style="stroke:#181818;stroke-width:1.0;"/><line style="stroke:#181818;stroke-width:1.0;" x1="188.5" x2="228" y1="547.7188" y2="547.7188"/><polygon fill="#181818" points="224,592.1836,228,602.1836,232,592.1836,228,596.1836" style="stroke:#181818;stroke-width:1.0;"/><line style="stroke:#181818;stroke-width:1.0;" x1="228" x2="228" y1="547.7188" y2="651.7305"/><line style="stroke:#181818;stroke-width:1.0;" x1="228" x2="143.5" y1="651.7305" y2="651.7305"/><polygon fill="#181818" points="153.5,647.7305,143.5,651.7305,153.5,655.7305,149.5,651.7305" style="stroke:#181818;stroke-width:1.0;"/><line style="stroke:#181818;stroke-width:1.0;" x1="131.5" x2="131.5" y1="619.7305" y2="639.7305"/><polygon fill="#181818" points="127.5,629.7305,131.5,639.7305,135.5,629.7305,131.5,633.7305" style="stroke:#181818;stroke-width:1.0;"/><line style="stroke:#181818;stroke-width:1.0;" x1="131.5" x2="131.5" y1="515.7188" y2="535.7188"/><polygon fill="#181818" points="127.5,525.7188,131.5,535.7188,135.5,525.7188,131.5,529.7188" style="stroke:#181818;stroke-width:1.0;"/><line style="stroke:#181818;stroke-width:1.0;" x1="131.5" x2="131.5" y1="307.6953" y2="332.6133"/><polygon fill="#181818" points="127.5,322.6133,131.5,332.6133,135.5,322.6133,131.5,326.6133" style="stroke:#181818;stroke-width:1.0;"/><line style="stroke:#181818;stroke-width:1.0;" x1="188.5" x2="246" y1="295.6953" y2="295.6953"/><polygon fill="#181818" points="242,488.1719,246,498.1719,250,488.1719,246,492.1719" style="stroke:#181818;stroke-width:1.0;"/><line style="stroke:#181818;stroke-width:1.0;" x1="246" x2="246" y1="295.6953" y2="695.7305"/><line style="stroke:#181818;stroke-width:1.0;" x1="246" x2="143.5" y1="695.7305" y2="695.7305"/><polygon fill="#181818" points="153.5,691.7305,143.5,695.7305,153.5,699.7305,149.5,695.7305" style="stroke:#181818;stroke-width:1.0;"/><line style="stroke:#181818;stroke-width:1.0;" x1="131.5" x2="131.5" y1="663.7305" y2="683.7305"/><polygon fill="#181818" points="127.5,673.7305,131.5,683.7305,135.5,673.7305,131.5,677.7305" style="stroke:#181818;stroke-width:1.0;"/><line style="stroke:#181818;stroke-width:1.0;" x1="346.5" x2="346.5" y1="356.6133" y2="381.5313"/><polygon fill="#181818" points="342.5,371.5313,346.5,381.5313,350.5,371.5313,346.5,375.5313" style="stroke:#181818;stroke-width:1.0;"/><line style="stroke:#181818;stroke-width:1.0;" x1="404" x2="421" y1="344.6133" y2="344.6133"/><polygon fill="#181818" points="417,389.0781,421,399.0781,425,389.0781,421,393.0781" style="stroke:#181818;stroke-width:1.0;"/><line style="stroke:#181818;stroke-width:1.0;" x1="421" x2="421" y1="344.6133" y2="448.625"/><line style="stroke:#181818;stroke-width:1.0;" x1="421" x2="358.5" y1="448.625" y2="448.625"/><polygon fill="#181818" points="368.5,444.625,358.5,448.625,368.5,452.625,364.5,448.625" style="stroke:#181818;stroke-width:1.0;"/><line style="stroke:#181818;stroke-width:1.0;" x1="346.5" x2="346.5" y1="416.625" y2="436.625"/><polygon fill="#181818" points="342.5,426.625,346.5,436.625,350.5,426.625,346.5,430.625" style="stroke:#181818;stroke-width:1.0;"/><line style="stroke:#181818;stroke-width:1.0;" x1="346.5" x2="346.5" y1="460.625" y2="480.625"/><polygon fill="#181818" points="342.5,470.625,346.5,480.625,350.5,470.625,346.5,474.625" style="stroke:#181818;stroke-width:1.0;"/><line style="stroke:#181818;stroke-width:1.0;" x1="346.5" x2="346.5" y1="559.7188" y2="584.6367"/><polygon fill="#181818" points="342.5,574.6367,346.5,584.6367,350.5,574.6367,346.5,578.6367" style="stroke:#181818;stroke-width:1.0;"/><line style="stroke:#181818;stroke-width:1.0;" x1="403.5" x2="443" y1="547.7188" y2="547.7188"/><polygon fill="#181818" points="439,592.1836,443,602.1836,447,592.1836,443,596.1836" style="stroke:#181818;stroke-width:1.0;"/><line style="stroke:#181818;stroke-width:1.0;" x1="443" x2="443" y1="547.7188" y2="651.7305"/><line style="stroke:#181818;stroke-width:1.0;" x1="443" x2="358.5" y1="651.7305" y2="651.7305"/><polygon fill="#181818" points="368.5,647.7305,358.5,651.7305,368.5,655.7305,364.5,651.7305" style="stroke:#181818;stroke-width:1.0;"/><line style="stroke:#181818;stroke-width:1.0;" x1="346.5" x2="346.5" y1="619.7305" y2="639.7305"/><polygon fill="#181818" points="342.5,629.7305,346.5,639.7305,350.5,629.7305,346.5,633.7305" style="stroke:#181818;stroke-width:1.0;"/><line style="stroke:#181818;stroke-width:1.0;" x1="346.5" x2="346.5" y1="515.7188" y2="535.7188"/><polygon fill="#181818" points="342.5,525.7188,346.5,535.7188,350.5,525.7188,346.5,529.7188" style="stroke:#181818;stroke-width:1.0;"/><line style="stroke:#181818;stroke-width:1.0;" x1="346.5" x2="346.5" y1="307.6953" y2="332.6133"/><polygon fill="#181818" points="342.5,322.6133,346.5,332.6133,350.5,322.6133,346.5,326.6133" style="stroke:#181818;stroke-width:1.0;"/><line style="stroke:#181818;stroke-width:1.0;" x1="411.5" x2="465" y1="295.6953" y2="295.6953"/><polygon fill="#181818" points="461,488.1719,465,498.1719,469,488.1719,465,492.1719" style="stroke:#181818;stroke-width:1.0;"/><line style="stroke:#181818;stroke-width:1.0;" x1="465" x2="465" y1="295.6953" y2="695.7305"/><line style="stroke:#181818;stroke-width:1.0;" x1="465" x2="358.5" y1="695.7305" y2="695.7305"/><polygon fill="#181818" points="368.5,691.7305,358.5,695.7305,368.5,699.7305,364.5,695.7305" style="stroke:#181818;stroke-width:1.0;"/><line style="stroke:#181818;stroke-width:1.0;" x1="346.5" x2="346.5" y1="663.7305" y2="683.7305"/><polygon fill="#181818" points="342.5,673.7305,346.5,683.7305,350.5,673.7305,346.5,677.7305" style="stroke:#181818;stroke-width:1.0;"/><line style="stroke:#181818;stroke-width:1.0;" x1="603.5" x2="603.5" y1="356.6133" y2="381.5313"/><polygon fill="#181818" points="599.5,371.5313,603.5,381.5313,607.5,371.5313,603.5,375.5313" style="stroke:#181818;stroke-width:1.0;"/><line style="stroke:#181818;stroke-width:1.0;" x1="661" x2="673" y1="344.6133" y2="344.6133"/><polygon fill="#181818" points="669,389.0781,673,399.0781,677,389.0781,673,393.0781" style="stroke:#181818;stroke-width:1.0;"/><line style="stroke:#181818;stroke-width:1.0;" x1="673" x2="673" y1="344.6133" y2="448.625"/><line style="stroke:#181818;stroke-width:1.0;" x1="673" x2="615.5" y1="448.625" y2="448.625"/><polygon fill="#181818" points="625.5,444.625,615.5,448.625,625.5,452.625,621.5,448.625" style="stroke:#181818;stroke-width:1.0;"/><line style="stroke:#181818;stroke-width:1.0;" x1="603.5" x2="603.5" y1="416.625" y2="436.625"/><polygon fill="#181818" points="599.5,426.625,603.5,436.625,607.5,426.625,603.5,430.625" style="stroke:#181818;stroke-width:1.0;"/><line style="stroke:#181818;stroke-width:1.0;" x1="603.5" x2="603.5" y1="460.625" y2="480.625"/><polygon fill="#181818" points="599.5,470.625,603.5,480.625,607.5,470.625,603.5,474.625" style="stroke:#181818;stroke-width:1.0;"/><line style="stroke:#181818;stroke-width:1.0;" x1="603.5" x2="603.5" y1="559.7188" y2="584.6367"/><polygon fill="#181818" points="599.5,574.6367,603.5,584.6367,607.5,574.6367,603.5,578.6367" style="stroke:#181818;stroke-width:1.0;"/><line style="stroke:#181818;stroke-width:1.0;" x1="660.5" x2="700" y1="547.7188" y2="547.7188"/><polygon fill="#181818" points="696,592.1836,700,602.1836,704,592.1836,700,596.1836" style="stroke:#181818;stroke-width:1.0;"/><line style="stroke:#181818;stroke-width:1.0;" x1="700" x2="700" y1="547.7188" y2="651.7305"/><line style="stroke:#181818;stroke-width:1.0;" x1="700" x2="615.5" y1="651.7305" y2="651.7305"/><polygon fill="#181818" points="625.5,647.7305,615.5,651.7305,625.5,655.7305,621.5,651.7305" style="stroke:#181818;stroke-width:1.0;"/><line style="stroke:#181818;stroke-width:1.0;" x1="603.5" x2="603.5" y1="619.7305" y2="639.7305"/><polygon fill="#181818" points="599.5,629.7305,603.5,639.7305,607.5,629.7305,603.5,633.7305" style="stroke:#181818;stroke-width:1.0;"/><line style="stroke:#181818;stroke-width:1.0;" x1="603.5" x2="603.5" y1="515.7188" y2="535.7188"/><polygon fill="#181818" points="599.5,525.7188,603.5,535.7188,607.5,525.7188,603.5,529.7188" style="stroke:#181818;stroke-width:1.0;"/><line style="stroke:#181818;stroke-width:1.0;" x1="603.5" x2="603.5" y1="307.6953" y2="332.6133"/><polygon fill="#181818" points="599.5,322.6133,603.5,332.6133,607.5,322.6133,603.5,326.6133" style="stroke:#181818;stroke-width:1.0;"/><line style="stroke:#181818;stroke-width:1.0;" x1="662" x2="718" y1="295.6953" y2="295.6953"/><polygon fill="#181818" points="714,488.1719,718,498.1719,722,488.1719,718,492.1719" style="stroke:#181818;stroke-width:1.0;"/><line style="stroke:#181818;stroke-width:1.0;" x1="718" x2="718" y1="295.6953" y2="695.7305"/><line style="stroke:#181818;stroke-width:1.0;" x1="718" x2="615.5" y1="695.7305" y2="695.7305"/><polygon fill="#181818" points="625.5,691.7305,615.5,695.7305,625.5,699.7305,621.5,695.7305" style="stroke:#181818;stroke-width:1.0;"/><line style="stroke:#181818;stroke-width:1.0;" x1="603.5" x2="603.5" y1="663.7305" y2="683.7305"/><polygon fill="#181818" points="599.5,673.7305,603.5,683.7305,607.5,673.7305,603.5,677.7305" style="stroke:#181818;stroke-width:1.0;"/><line style="stroke:#181818;stroke-width:1.0;" x1="818.5" x2="818.5" y1="356.6133" y2="381.5313"/><polygon fill="#181818" points="814.5,371.5313,818.5,381.5313,822.5,371.5313,818.5,375.5313" style="stroke:#181818;stroke-width:1.0;"/><line style="stroke:#181818;stroke-width:1.0;" x1="876" x2="891.5" y1="344.6133" y2="344.6133"/><polygon fill="#181818" points="887.5,389.0781,891.5,399.0781,895.5,389.0781,891.5,393.0781" style="stroke:#181818;stroke-width:1.0;"/><line style="stroke:#181818;stroke-width:1.0;" x1="891.5" x2="891.5" y1="344.6133" y2="448.625"/><line style="stroke:#181818;stroke-width:1.0;" x1="891.5" x2="830.5" y1="448.625" y2="448.625"/><polygon fill="#181818" points="840.5,444.625,830.5,448.625,840.5,452.625,836.5,448.625" style="stroke:#181818;stroke-width:1.0;"/><line style="stroke:#181818;stroke-width:1.0;" x1="818.5" x2="818.5" y1="416.625" y2="436.625"/><polygon fill="#181818" points="814.5,426.625,818.5,436.625,822.5,426.625,818.5,430.625" style="stroke:#181818;stroke-width:1.0;"/><line style="stroke:#181818;stroke-width:1.0;" x1="818.5" x2="818.5" y1="460.625" y2="480.625"/><polygon fill="#181818" points="814.5,470.625,818.5,480.625,822.5,470.625,818.5,474.625" style="stroke:#181818;stroke-width:1.0;"/><line style="stroke:#181818;stroke-width:1.0;" x1="818.5" x2="818.5" y1="559.7188" y2="584.6367"/><polygon fill="#181818" points="814.5,574.6367,818.5,584.6367,822.5,574.6367,818.5,578.6367" style="stroke:#181818;stroke-width:1.0;"/><line style="stroke:#181818;stroke-width:1.0;" x1="875.5" x2="915" y1="547.7188" y2="547.7188"/><polygon fill="#181818" points="911,592.1836,915,602.1836,919,592.1836,915,596.1836" style="stroke:#181818;stroke-width:1.0;"/><line style="stroke:#181818;stroke-width:1.0;" x1="915" x2="915" y1="547.7188" y2="651.7305"/><line style="stroke:#181818;stroke-width:1.0;" x1="915" x2="830.5" y1="651.7305" y2="651.7305"/><polygon fill="#181818" points="840.5,647.7305,830.5,651.7305,840.5,655.7305,836.5,651.7305" style="stroke:#181818;stroke-width:1.0;"/><line style="stroke:#181818;stroke-width:1.0;" x1="818.5" x2="818.5" y1="619.7305" y2="639.7305"/><polygon fill="#181818" points="814.5,629.7305,818.5,639.7305,822.5,629.7305,818.5,633.7305" style="stroke:#181818;stroke-width:1.0;"/><line style="stroke:#181818;stroke-width:1.0;" x1="818.5" x2="818.5" y1="515.7188" y2="535.7188"/><polygon fill="#181818" points="814.5,525.7188,818.5,535.7188,822.5,525.7188,818.5,529.7188" style="stroke:#181818;stroke-width:1.0;"/><line style="stroke:#181818;stroke-width:1.0;" x1="818.5" x2="818.5" y1="307.6953" y2="332.6133"/><polygon fill="#181818" points="814.5,322.6133,818.5,332.6133,822.5,322.6133,818.5,326.6133" style="stroke:#181818;stroke-width:1.0;"/><line style="stroke:#181818;stroke-width:1.0;" x1="880" x2="933" y1="295.6953" y2="295.6953"/><polygon fill="#181818" points="929,488.1719,933,498.1719,937,488.1719,933,492.1719" style="stroke:#181818;stroke-width:1.0;"/><line style="stroke:#181818;stroke-width:1.0;" x1="933" x2="933" y1="295.6953" y2="695.7305"/><line style="stroke:#181818;stroke-width:1.0;" x1="933" x2="830.5" y1="695.7305" y2="695.7305"/><polygon fill="#181818" points="840.5,691.7305,830.5,695.7305,840.5,699.7305,836.5,695.7305" style="stroke:#181818;stroke-width:1.0;"/><line style="stroke:#181818;stroke-width:1.0;" x1="818.5" x2="818.5" y1="663.7305" y2="683.7305"/><polygon fill="#181818" points="814.5,673.7305,818.5,683.7305,822.5,673.7305,818.5,677.7305" style="stroke:#181818;stroke-width:1.0;"/><line style="stroke:#181818;stroke-width:1.0;" x1="463" x2="131.5" y1="234.0234" y2="234.0234"/><line style="stroke:#181818;stroke-width:1.0;" x1="131.5" x2="131.5" y1="234.0234" y2="283.6953"/><polygon fill="#181818" points="127.5,273.6953,131.5,283.6953,135.5,273.6953,131.5,277.6953" style="stroke:#181818;stroke-width:1.0;"/><text fill="#000000" font-family="sans-serif" font-size="11" lengthAdjust="spacing" textLength="12" x="131.5" y="263.3604">up</text><line style="stroke:#181818;stroke-width:1.0;" x1="511" x2="818.5" y1="234.0234" y2="234.0234"/><line style="stroke:#181818;stroke-width:1.0;" x1="818.5" x2="818.5" y1="234.0234" y2="283.6953"/><polygon fill="#181818" points="814.5,273.6953,818.5,283.6953,822.5,273.6953,818.5,277.6953" style="stroke:#181818;stroke-width:1.0;"/><text fill="#000000" font-family="sans-serif" font-size="11" lengthAdjust="spacing" textLength="21" x="818.5" y="263.3604">right</text><line style="stroke:#181818;stroke-width:1.0;" x1="346.5" x2="346.5" y1="234.0234" y2="283.6953"/><polygon fill="#181818" points="342.5,273.6953,346.5,283.6953,350.5,273.6953,346.5,277.6953" style="stroke:#181818;stroke-width:1.0;"/><text fill="#000000" font-family="sans-serif" font-size="11" lengthAdjust="spacing" textLength="28" x="346.5" y="258.3604">down</text><line style="stroke:#181818;stroke-width:1.0;" x1="603.5" x2="603.5" y1="234.0234" y2="283.6953"/><polygon fill="#181818" points="599.5,273.6953,603.5,283.6953,607.5,273.6953,603.5,277.6953" style="stroke:#181818;stroke-width:1.0;"/><text fill="#000000" font-family="sans-serif" font-size="11" lengthAdjust="spacing" textLength="15" x="603.5" y="258.3604">left</text><line style="stroke:#181818;stroke-width:1.0;" x1="131.5" x2="131.5" y1="707.7305" y2="729.7305"/><line style="stroke:#181818;stroke-width:1.0;" x1="131.5" x2="475" y1="729.7305" y2="729.7305"/><polygon fill="#181818" points="465,725.7305,475,729.7305,465,733.7305,469,729.7305" style="stroke:#181818;stroke-width:1.0;"/><line style="stroke:#181818;stroke-width:1.0;" x1="818.5" x2="818.5" y1="707.7305" y2="729.7305"/><line style="stroke:#181818;stroke-width:1.0;" x1="818.5" x2="499" y1="729.7305" y2="729.7305"/><polygon fill="#181818" points="509,725.7305,499,729.7305,509,733.7305,505,729.7305" style="stroke:#181818;stroke-width:1.0;"/><line style="stroke:#181818;stroke-width:1.0;" x1="346.5" x2="346.5" y1="707.7305" y2="729.7305"/><polygon fill="#181818" points="342.5,719.7305,346.5,729.7305,350.5,719.7305,346.5,723.7305" style="stroke:#181818;stroke-width:1.0;"/><line style="stroke:#181818;stroke-width:1.0;" x1="603.5" x2="603.5" y1="707.7305" y2="729.7305"/><polygon fill="#181818" points="599.5,719.7305,603.5,729.7305,607.5,719.7305,603.5,723.7305" style="stroke:#181818;stroke-width:1.0;"/><line style="stroke:#181818;stroke-width:1.0;" x1="487" x2="487" y1="202.0234" y2="222.0234"/><polygon fill="#181818" points="483,212.0234,487,222.0234,491,212.0234,487,216.0234" style="stroke:#181818;stroke-width:1.0;"/><line style="stroke:#181818;stroke-width:1.0;" x1="487" x2="487" y1="129.0938" y2="166.9297"/><polygon fill="#181818" points="483,156.9297,487,166.9297,491,156.9297,487,160.9297" style="stroke:#181818;stroke-width:1.0;"/><line style="stroke:#181818;stroke-width:1.0;" x1="487" x2="487" y1="741.7305" y2="751.7305"/><line style="stroke:#181818;stroke-width:1.0;" x1="487" x2="951" y1="751.7305" y2="751.7305"/><polygon fill="#181818" points="947,490.3711,951,480.3711,955,490.3711,951,486.3711" style="stroke:#181818;stroke-width:1.0;"/><line style="stroke:#181818;stroke-width:1.0;" x1="951" x2="951" y1="117.0938" y2="751.7305"/><line style="stroke:#181818;stroke-width:1.0;" x1="951" x2="545.5" y1="117.0938" y2="117.0938"/><polygon fill="#181818" points="555.5,113.0938,545.5,117.0938,555.5,121.0938,551.5,117.0938" style="stroke:#181818;stroke-width:1.0;"/><line style="stroke:#181818;stroke-width:1.0;" x1="428.5" x2="24" y1="117.0938" y2="117.0938"/><line style="stroke:#181818;stroke-width:1.0;" x1="24" x2="24" y1="117.0938" y2="153.0938"/><polygon fill="#181818" points="20,143.0938,24,153.0938,28,143.0938,24,147.0938" style="stroke:#181818;stroke-width:1.0;"/><line style="stroke:#181818;stroke-width:1.0;" x1="487" x2="487" y1="85.0938" y2="105.0938"/><polygon fill="#181818" points="483,95.0938,487,105.0938,491,95.0938,487,99.0938" style="stroke:#181818;stroke-width:1.0;"/><!--MD5=[6010234b9d475dd4f0ac3c5951f871ab]
@startuml Rover Activity Diagram for rover movement

start
:Initialize level one;
while (**enpoint_reached**) is (false)
    :get key pressed;
    
    switch (key)
    case (up)
        if (move up possible?) then (true)
            if (Rotation Required?) then (true)
                :Rotate Image Up;
            else (false)
            endif
            :Move Up;
            if (endpoint rechaed?) then (true)
                #PaleGreen:set **enpoint_reached** to true;
            else (false)
            endif
        else (false)
        endif
    case (down)
        if (move down possible?) then (true)
            if (Rotation Required?) then (true)
                :Rotate Image Down;
            else (false)
            endif
            :Move Down;
            if (endpoint rechaed?) then (true)
                #PaleGreen:set **enpoint_reached** to true;
            else (false)
            endif
        else (false)
        endif
    case (left)
        if (move left possible?) then (true)
            if (Rotation Required?) then (true)
                :Rotate Image Left;
            else (false)
            endif
            :Move Left;
            if (endpoint rechaed?) then (true)
                #PaleGreen:set **enpoint_reached** to true;
            else (false)
            endif
        else (false)
        endif
    case (right)
        if (move right possible?) then (true)
            if (Rotation Required?) then (true)
                :Rotate Image Right;
            else (false)
            endif
            :Move Right;
            if (endpoint rechaed?) then (true)
                #PaleGreen:set **enpoint_reached** to true;
            else (false)
            endif
        else (false)
        endif
    endswitch


endwhile (true)
stop

@enduml

PlantUML version 1.2022.7(Mon Aug 22 19:01:30 CEST 2022)
(GPL source distribution)
Java Runtime: Java(TM) SE Runtime Environment
JVM: Java HotSpot(TM) 64-Bit Server VM
Default Encoding: UTF-8
Language: en
Country: US
--></g></svg>