<?xml version="1.0" encoding="UTF-8" standalone="no"?><svg xmlns="http://www.w3.org/2000/svg" xmlns:xlink="http://www.w3.org/1999/xlink" contentStyleType="text/css" height="1173px" preserveAspectRatio="none" style="width:1581px;height:1173px;background:#FFFFFF;" version="1.1" viewBox="0 0 1581 1173" width="1581px" zoomAndPan="magnify"><defs/><g><!--MD5=[0d9a7f3473e4360f8bcad0bbde89920a]
class .EnumMeta--><g id="elem_.EnumMeta"><rect codeLine="2" fill="#F1F1F1" height="48" id=".EnumMeta" rx="2.5" ry="2.5" style="stroke:#181818;stroke-width:0.5;" width="99" x="428" y="846"/><ellipse cx="443" cy="862" fill="#ADD1B2" rx="11" ry="11" style="stroke:#181818;stroke-width:1.0;"/><path d="M445.7656,857.875 Q445.9219,857.6563 446.1094,857.5469 Q446.2969,857.4375 446.5156,857.4375 Q446.8906,857.4375 447.125,857.7031 Q447.3594,857.9531 447.3594,858.5625 L447.3594,860.0156 Q447.3594,860.625 447.125,860.8906 Q446.8906,861.1563 446.5156,861.1563 Q446.1719,861.1563 445.9688,860.9531 Q445.7656,860.7656 445.6563,860.25 Q445.6094,859.8906 445.4219,859.7031 Q445.0938,859.3281 444.4844,859.1094 Q443.875,858.8906 443.25,858.8906 Q442.4844,858.8906 441.8438,859.2188 Q441.2188,859.5469 440.7188,860.2969 Q440.2344,861.0469 440.2344,862.0781 L440.2344,863.1719 Q440.2344,864.4063 441.125,865.2344 Q442.0156,866.0469 443.6094,866.0469 Q444.5469,866.0469 445.2031,865.7969 Q445.5938,865.6406 446.0156,865.2031 Q446.2813,864.9375 446.4219,864.8594 Q446.5781,864.7813 446.7813,864.7813 Q447.1094,864.7813 447.3594,865.0469 Q447.625,865.2969 447.625,865.6406 Q447.625,865.9844 447.2813,866.3906 Q446.7813,866.9688 445.9844,867.2969 Q444.9063,867.75 443.6094,867.75 Q442.0938,867.75 440.8906,867.125 Q439.9063,866.625 439.2188,865.5625 Q438.5313,864.4844 438.5313,863.2031 L438.5313,862.0469 Q438.5313,860.7188 439.1406,859.5781 Q439.7656,858.4219 440.8594,857.8125 Q441.9531,857.1875 443.1875,857.1875 Q443.9219,857.1875 444.5625,857.3594 Q445.2188,857.5156 445.7656,857.875 Z " fill="#000000"/><text fill="#000000" font-family="sans-serif" font-size="14" lengthAdjust="spacing" textLength="67" x="457" y="867.7285">EnumMeta</text><line style="stroke:#181818;stroke-width:0.5;" x1="429" x2="526" y1="878" y2="878"/><line style="stroke:#181818;stroke-width:0.5;" x1="429" x2="526" y1="886" y2="886"/></g><!--MD5=[530f48020d586cf785d43704b81ca4f9]
class spacerover.level_one.LevelOne--><g id="elem_spacerover.level_one.LevelOne"><rect codeLine="4" fill="#F1F1F1" height="488.2344" id="spacerover.level_one.LevelOne" rx="2.5" ry="2.5" style="stroke:#181818;stroke-width:0.5;" width="221" x="7" y="7"/><ellipse cx="82.75" cy="23" fill="#ADD1B2" rx="11" ry="11" style="stroke:#181818;stroke-width:1.0;"/><path d="M85.5156,18.875 Q85.6719,18.6563 85.8594,18.5469 Q86.0469,18.4375 86.2656,18.4375 Q86.6406,18.4375 86.875,18.7031 Q87.1094,18.9531 87.1094,19.5625 L87.1094,21.0156 Q87.1094,21.625 86.875,21.8906 Q86.6406,22.1563 86.2656,22.1563 Q85.9219,22.1563 85.7188,21.9531 Q85.5156,21.7656 85.4063,21.25 Q85.3594,20.8906 85.1719,20.7031 Q84.8438,20.3281 84.2344,20.1094 Q83.625,19.8906 83,19.8906 Q82.2344,19.8906 81.5938,20.2188 Q80.9688,20.5469 80.4688,21.2969 Q79.9844,22.0469 79.9844,23.0781 L79.9844,24.1719 Q79.9844,25.4063 80.875,26.2344 Q81.7656,27.0469 83.3594,27.0469 Q84.2969,27.0469 84.9531,26.7969 Q85.3438,26.6406 85.7656,26.2031 Q86.0313,25.9375 86.1719,25.8594 Q86.3281,25.7813 86.5313,25.7813 Q86.8594,25.7813 87.1094,26.0469 Q87.375,26.2969 87.375,26.6406 Q87.375,26.9844 87.0313,27.3906 Q86.5313,27.9688 85.7344,28.2969 Q84.6563,28.75 83.3594,28.75 Q81.8438,28.75 80.6406,28.125 Q79.6563,27.625 78.9688,26.5625 Q78.2813,25.4844 78.2813,24.2031 L78.2813,23.0469 Q78.2813,21.7188 78.8906,20.5781 Q79.5156,19.4219 80.6094,18.8125 Q81.7031,18.1875 82.9375,18.1875 Q83.6719,18.1875 84.3125,18.3594 Q84.9688,18.5156 85.5156,18.875 Z " fill="#000000"/><text fill="#000000" font-family="sans-serif" font-size="14" lengthAdjust="spacing" textLength="61" x="103.25" y="28.7285">LevelOne</text><line style="stroke:#181818;stroke-width:0.5;" x1="8" x2="227" y1="39" y2="39"/><text fill="#000000" font-family="sans-serif" font-size="14" lengthAdjust="spacing" textLength="115" x="13" y="57.5332">TEXT_COL : tuple</text><text fill="#000000" font-family="sans-serif" font-size="14" lengthAdjust="spacing" textLength="121" x="13" y="75.1426">background_image</text><text fill="#000000" font-family="sans-serif" font-size="14" lengthAdjust="spacing" textLength="121" x="13" y="92.752">background_image</text><text fill="#000000" font-family="sans-serif" font-size="14" lengthAdjust="spacing" textLength="52" x="13" y="110.3613">cols : int</text><text fill="#000000" font-family="sans-serif" font-size="14" lengthAdjust="spacing" textLength="101" x="13" y="127.9707">endpoint_image</text><text fill="#000000" font-family="sans-serif" font-size="14" lengthAdjust="spacing" textLength="133" x="13" y="145.5801">endpoint_image_rect</text><text fill="#000000" font-family="sans-serif" font-size="14" lengthAdjust="spacing" textLength="24" x="13" y="163.1895">font</text><text fill="#000000" font-family="sans-serif" font-size="14" lengthAdjust="spacing" textLength="129" x="13" y="180.7988">game_paused : bool</text><text fill="#000000" font-family="sans-serif" font-size="14" lengthAdjust="spacing" textLength="89" x="13" y="198.4082">obstacles : list</text><text fill="#000000" font-family="sans-serif" font-size="14" lengthAdjust="spacing" textLength="109" x="13" y="216.0176">pygame_wrapper</text><text fill="#000000" font-family="sans-serif" font-size="14" lengthAdjust="spacing" textLength="33" x="13" y="233.627">rover</text><text fill="#000000" font-family="sans-serif" font-size="14" lengthAdjust="spacing" textLength="56" x="13" y="251.2363">rows : int</text><text fill="#000000" font-family="sans-serif" font-size="14" lengthAdjust="spacing" textLength="43" x="13" y="268.8457">screen</text><text fill="#000000" font-family="sans-serif" font-size="14" lengthAdjust="spacing" textLength="90" x="13" y="286.4551">screen_height</text><text fill="#000000" font-family="sans-serif" font-size="14" lengthAdjust="spacing" textLength="83" x="13" y="304.0645">screen_width</text><text fill="#000000" font-family="sans-serif" font-size="14" lengthAdjust="spacing" textLength="105" x="13" y="321.6738">startpoint_image</text><text fill="#000000" font-family="sans-serif" font-size="14" lengthAdjust="spacing" textLength="137" x="13" y="339.2832">startpoint_image_rect</text><text fill="#000000" font-family="sans-serif" font-size="14" lengthAdjust="spacing" textLength="51" x="13" y="356.8926">titleFont</text><text fill="#000000" font-family="sans-serif" font-size="14" lengthAdjust="spacing" textLength="75" x="13" y="374.502">window_title</text><line style="stroke:#181818;stroke-width:0.5;" x1="8" x2="227" y1="381.5781" y2="381.5781"/><text fill="#000000" font-family="sans-serif" font-size="14" lengthAdjust="spacing" textLength="108" x="13" y="400.1113">draw_obstacles()</text><text fill="#000000" font-family="sans-serif" font-size="14" lengthAdjust="spacing" textLength="209" x="13" y="417.7207">draw_text(text, font, text_col, x, y)</text><text fill="#000000" font-family="sans-serif" font-size="14" lengthAdjust="spacing" textLength="100" x="13" y="435.3301">load_endpoint()</text><text fill="#000000" font-family="sans-serif" font-size="14" lengthAdjust="spacing" textLength="105" x="13" y="452.9395">load_obstacles()</text><text fill="#000000" font-family="sans-serif" font-size="14" lengthAdjust="spacing" textLength="104" x="13" y="470.5488">load_startpoint()</text><text fill="#000000" font-family="sans-serif" font-size="14" lengthAdjust="spacing" textLength="42" x="13" y="488.1582">open()</text></g><!--MD5=[0a1d6f9800eb1d1b3e90d98f0cf39a76]
class spacerover.main_menu.MainMenu--><g id="elem_spacerover.main_menu.MainMenu"><rect codeLine="31" fill="#F1F1F1" height="276.9219" id="spacerover.main_menu.MainMenu" rx="2.5" ry="2.5" style="stroke:#181818;stroke-width:0.5;" width="259" x="263" y="112.5"/><ellipse cx="355.75" cy="128.5" fill="#ADD1B2" rx="11" ry="11" style="stroke:#181818;stroke-width:1.0;"/><path d="M358.5156,124.375 Q358.6719,124.1563 358.8594,124.0469 Q359.0469,123.9375 359.2656,123.9375 Q359.6406,123.9375 359.875,124.2031 Q360.1094,124.4531 360.1094,125.0625 L360.1094,126.5156 Q360.1094,127.125 359.875,127.3906 Q359.6406,127.6563 359.2656,127.6563 Q358.9219,127.6563 358.7188,127.4531 Q358.5156,127.2656 358.4063,126.75 Q358.3594,126.3906 358.1719,126.2031 Q357.8438,125.8281 357.2344,125.6094 Q356.625,125.3906 356,125.3906 Q355.2344,125.3906 354.5938,125.7188 Q353.9688,126.0469 353.4688,126.7969 Q352.9844,127.5469 352.9844,128.5781 L352.9844,129.6719 Q352.9844,130.9063 353.875,131.7344 Q354.7656,132.5469 356.3594,132.5469 Q357.2969,132.5469 357.9531,132.2969 Q358.3438,132.1406 358.7656,131.7031 Q359.0313,131.4375 359.1719,131.3594 Q359.3281,131.2813 359.5313,131.2813 Q359.8594,131.2813 360.1094,131.5469 Q360.375,131.7969 360.375,132.1406 Q360.375,132.4844 360.0313,132.8906 Q359.5313,133.4688 358.7344,133.7969 Q357.6563,134.25 356.3594,134.25 Q354.8438,134.25 353.6406,133.625 Q352.6563,133.125 351.9688,132.0625 Q351.2813,130.9844 351.2813,129.7031 L351.2813,128.5469 Q351.2813,127.2188 351.8906,126.0781 Q352.5156,124.9219 353.6094,124.3125 Q354.7031,123.6875 355.9375,123.6875 Q356.6719,123.6875 357.3125,123.8594 Q357.9688,124.0156 358.5156,124.375 Z " fill="#000000"/><text fill="#000000" font-family="sans-serif" font-size="14" lengthAdjust="spacing" textLength="65" x="376.25" y="134.2285">MainMenu</text><line style="stroke:#181818;stroke-width:0.5;" x1="264" x2="521" y1="144.5" y2="144.5"/><text fill="#000000" font-family="sans-serif" font-size="14" lengthAdjust="spacing" textLength="118" x="269" y="163.0332">buttonLocationLeft</text><text fill="#000000" font-family="sans-serif" font-size="14" lengthAdjust="spacing" textLength="145" x="269" y="180.6426">buttonLocationQuitTop</text><text fill="#000000" font-family="sans-serif" font-size="14" lengthAdjust="spacing" textLength="149" x="269" y="198.252">buttonLocationStartTop</text><text fill="#000000" font-family="sans-serif" font-size="14" lengthAdjust="spacing" textLength="24" x="269" y="215.8613">font</text><text fill="#000000" font-family="sans-serif" font-size="14" lengthAdjust="spacing" textLength="109" x="269" y="233.4707">pygame_wrapper</text><text fill="#000000" font-family="sans-serif" font-size="14" lengthAdjust="spacing" textLength="43" x="269" y="251.0801">screen</text><text fill="#000000" font-family="sans-serif" font-size="14" lengthAdjust="spacing" textLength="90" x="269" y="268.6895">screen_height</text><text fill="#000000" font-family="sans-serif" font-size="14" lengthAdjust="spacing" textLength="83" x="269" y="286.2988">screen_width</text><text fill="#000000" font-family="sans-serif" font-size="14" lengthAdjust="spacing" textLength="51" x="269" y="303.9082">titleFont</text><line style="stroke:#181818;stroke-width:0.5;" x1="264" x2="521" y1="310.9844" y2="310.9844"/><text fill="#000000" font-family="sans-serif" font-size="14" lengthAdjust="spacing" textLength="247" x="269" y="329.5176">draw_text(text, font, color, surface, x, y)</text><text fill="#000000" font-family="sans-serif" font-size="14" lengthAdjust="spacing" textLength="45" x="269" y="347.127">game()</text><text fill="#000000" font-family="sans-serif" font-size="14" lengthAdjust="spacing" textLength="42" x="269" y="364.7363">open()</text><text fill="#000000" font-family="sans-serif" font-size="14" lengthAdjust="spacing" textLength="56" x="269" y="382.3457">options()</text></g><!--MD5=[46f10a9c6f4f0d1f2d3ba62d73334fb3]
class spacerover.obstacle.Obstacle--><g id="elem_spacerover.obstacle.Obstacle"><rect codeLine="46" fill="#F1F1F1" height="136.0469" id="spacerover.obstacle.Obstacle" rx="2.5" ry="2.5" style="stroke:#181818;stroke-width:0.5;" width="121" x="57" y="802"/><ellipse cx="86.85" cy="818" fill="#ADD1B2" rx="11" ry="11" style="stroke:#181818;stroke-width:1.0;"/><path d="M89.6156,813.875 Q89.7719,813.6563 89.9594,813.5469 Q90.1469,813.4375 90.3656,813.4375 Q90.7406,813.4375 90.975,813.7031 Q91.2094,813.9531 91.2094,814.5625 L91.2094,816.0156 Q91.2094,816.625 90.975,816.8906 Q90.7406,817.1563 90.3656,817.1563 Q90.0219,817.1563 89.8188,816.9531 Q89.6156,816.7656 89.5063,816.25 Q89.4594,815.8906 89.2719,815.7031 Q88.9438,815.3281 88.3344,815.1094 Q87.725,814.8906 87.1,814.8906 Q86.3344,814.8906 85.6938,815.2188 Q85.0688,815.5469 84.5688,816.2969 Q84.0844,817.0469 84.0844,818.0781 L84.0844,819.1719 Q84.0844,820.4063 84.975,821.2344 Q85.8656,822.0469 87.4594,822.0469 Q88.3969,822.0469 89.0531,821.7969 Q89.4438,821.6406 89.8656,821.2031 Q90.1313,820.9375 90.2719,820.8594 Q90.4281,820.7813 90.6313,820.7813 Q90.9594,820.7813 91.2094,821.0469 Q91.475,821.2969 91.475,821.6406 Q91.475,821.9844 91.1313,822.3906 Q90.6313,822.9688 89.8344,823.2969 Q88.7563,823.75 87.4594,823.75 Q85.9438,823.75 84.7406,823.125 Q83.7563,822.625 83.0688,821.5625 Q82.3813,820.4844 82.3813,819.2031 L82.3813,818.0469 Q82.3813,816.7188 82.9906,815.5781 Q83.6156,814.4219 84.7094,813.8125 Q85.8031,813.1875 87.0375,813.1875 Q87.7719,813.1875 88.4125,813.3594 Q89.0688,813.5156 89.6156,813.875 Z " fill="#000000"/><text fill="#000000" font-family="sans-serif" font-size="14" lengthAdjust="spacing" textLength="56" x="104.15" y="823.7285">Obstacle</text><line style="stroke:#181818;stroke-width:0.5;" x1="58" x2="177" y1="834" y2="834"/><text fill="#000000" font-family="sans-serif" font-size="14" lengthAdjust="spacing" textLength="38" x="63" y="852.5332">image</text><text fill="#000000" font-family="sans-serif" font-size="14" lengthAdjust="spacing" textLength="109" x="63" y="870.1426">pygame_wrapper</text><text fill="#000000" font-family="sans-serif" font-size="14" lengthAdjust="spacing" textLength="24" x="63" y="887.752">rect</text><text fill="#000000" font-family="sans-serif" font-size="14" lengthAdjust="spacing" textLength="66" x="63" y="905.3613">type : type</text><line style="stroke:#181818;stroke-width:0.5;" x1="58" x2="177" y1="912.4375" y2="912.4375"/><text fill="#000000" font-family="sans-serif" font-size="14" lengthAdjust="spacing" textLength="83" x="63" y="930.9707">draw(screen)</text></g><!--MD5=[4395440ffbf57deb6e5d4201acbbed9f]
class spacerover.pygame_wrapper.PygameWrapper--><g id="elem_spacerover.pygame_wrapper.PygameWrapper"><rect codeLine="53" fill="#F1F1F1" height="593.8906" id="spacerover.pygame_wrapper.PygameWrapper" rx="2.5" ry="2.5" style="stroke:#181818;stroke-width:0.5;" width="642" x="932.5" y="573"/><ellipse cx="1196.25" cy="589" fill="#ADD1B2" rx="11" ry="11" style="stroke:#181818;stroke-width:1.0;"/><path d="M1199.0156,584.875 Q1199.1719,584.6563 1199.3594,584.5469 Q1199.5469,584.4375 1199.7656,584.4375 Q1200.1406,584.4375 1200.375,584.7031 Q1200.6094,584.9531 1200.6094,585.5625 L1200.6094,587.0156 Q1200.6094,587.625 1200.375,587.8906 Q1200.1406,588.1563 1199.7656,588.1563 Q1199.4219,588.1563 1199.2188,587.9531 Q1199.0156,587.7656 1198.9063,587.25 Q1198.8594,586.8906 1198.6719,586.7031 Q1198.3438,586.3281 1197.7344,586.1094 Q1197.125,585.8906 1196.5,585.8906 Q1195.7344,585.8906 1195.0938,586.2188 Q1194.4688,586.5469 1193.9688,587.2969 Q1193.4844,588.0469 1193.4844,589.0781 L1193.4844,590.1719 Q1193.4844,591.4063 1194.375,592.2344 Q1195.2656,593.0469 1196.8594,593.0469 Q1197.7969,593.0469 1198.4531,592.7969 Q1198.8438,592.6406 1199.2656,592.2031 Q1199.5313,591.9375 1199.6719,591.8594 Q1199.8281,591.7813 1200.0313,591.7813 Q1200.3594,591.7813 1200.6094,592.0469 Q1200.875,592.2969 1200.875,592.6406 Q1200.875,592.9844 1200.5313,593.3906 Q1200.0313,593.9688 1199.2344,594.2969 Q1198.1563,594.75 1196.8594,594.75 Q1195.3438,594.75 1194.1406,594.125 Q1193.1563,593.625 1192.4688,592.5625 Q1191.7813,591.4844 1191.7813,590.2031 L1191.7813,589.0469 Q1191.7813,587.7188 1192.3906,586.5781 Q1193.0156,585.4219 1194.1094,584.8125 Q1195.2031,584.1875 1196.4375,584.1875 Q1197.1719,584.1875 1197.8125,584.3594 Q1198.4688,584.5156 1199.0156,584.875 Z " fill="#000000"/><text fill="#000000" font-family="sans-serif" font-size="14" lengthAdjust="spacing" textLength="106" x="1216.75" y="594.7285">PygameWrapper</text><line style="stroke:#181818;stroke-width:0.5;" x1="933.5" x2="1573.5" y1="605" y2="605"/><text fill="#000000" font-family="sans-serif" font-size="14" lengthAdjust="spacing" textLength="70" x="938.5" y="623.5332">Coordinate</text><text fill="#000000" font-family="sans-serif" font-size="14" lengthAdjust="spacing" textLength="38" x="938.5" y="641.1426">key_a</text><text fill="#000000" font-family="sans-serif" font-size="14" lengthAdjust="spacing" textLength="38" x="938.5" y="658.752">key_d</text><text fill="#000000" font-family="sans-serif" font-size="14" lengthAdjust="spacing" textLength="63" x="938.5" y="676.3613">key_down</text><text fill="#000000" font-family="sans-serif" font-size="14" lengthAdjust="spacing" textLength="49" x="938.5" y="693.9707">key_left</text><text fill="#000000" font-family="sans-serif" font-size="14" lengthAdjust="spacing" textLength="58" x="938.5" y="711.5801">key_right</text><text fill="#000000" font-family="sans-serif" font-size="14" lengthAdjust="spacing" textLength="37" x="938.5" y="729.1895">key_s</text><text fill="#000000" font-family="sans-serif" font-size="14" lengthAdjust="spacing" textLength="46" x="938.5" y="746.7988">key_up</text><text fill="#000000" font-family="sans-serif" font-size="14" lengthAdjust="spacing" textLength="39" x="938.5" y="764.4082">key_w</text><line style="stroke:#181818;stroke-width:0.5;" x1="933.5" x2="1573.5" y1="771.4844" y2="771.4844"/><text fill="#000000" font-family="sans-serif" font-size="14" lengthAdjust="spacing" textLength="45" x="938.5" y="790.0176">Clock()</text><text fill="#000000" font-family="sans-serif" font-size="14" lengthAdjust="spacing" textLength="313" x="938.5" y="807.627">Rect(left: float, top: float, width: float, height: float)</text><text fill="#000000" font-family="sans-serif" font-size="14" lengthAdjust="spacing" textLength="630" x="938.5" y="825.2363">create_button(button_location_left: int, button_location_top: int, button_width: int, button_height: int)</text><text fill="#000000" font-family="sans-serif" font-size="14" lengthAdjust="spacing" textLength="211" x="938.5" y="842.8457">create_font(font: str, fontSize: int)</text><text fill="#000000" font-family="sans-serif" font-size="14" lengthAdjust="spacing" textLength="80" x="938.5" y="860.4551">display_flip()</text><text fill="#000000" font-family="sans-serif" font-size="14" lengthAdjust="spacing" textLength="226" x="938.5" y="878.0645">display_set_mode(size: Coordinate)</text><text fill="#000000" font-family="sans-serif" font-size="14" lengthAdjust="spacing" textLength="106" x="938.5" y="895.6738">display_update()</text><text fill="#000000" font-family="sans-serif" font-size="14" lengthAdjust="spacing" textLength="198" x="938.5" y="913.2832">draw_rect(color, rect, width: int)</text><text fill="#000000" font-family="sans-serif" font-size="14" lengthAdjust="spacing" textLength="73" x="938.5" y="930.8926">get_event()</text><text fill="#000000" font-family="sans-serif" font-size="14" lengthAdjust="spacing" textLength="169" x="938.5" y="948.502">get_event_type_kescape()</text><text fill="#000000" font-family="sans-serif" font-size="14" lengthAdjust="spacing" textLength="171" x="938.5" y="966.1113">get_event_type_keydown()</text><text fill="#000000" font-family="sans-serif" font-size="14" lengthAdjust="spacing" textLength="231" x="938.5" y="983.7207">get_event_type_mousebuttondown()</text><text fill="#000000" font-family="sans-serif" font-size="14" lengthAdjust="spacing" textLength="139" x="938.5" y="1001.3301">get_event_type_quit()</text><text fill="#000000" font-family="sans-serif" font-size="14" lengthAdjust="spacing" textLength="119" x="938.5" y="1018.9395">get_key_pressed()</text><text fill="#000000" font-family="sans-serif" font-size="14" lengthAdjust="spacing" textLength="137" x="938.5" y="1036.5488">get_mouse_position()</text><text fill="#000000" font-family="sans-serif" font-size="14" lengthAdjust="spacing" textLength="181" x="938.5" y="1054.1582">load_image(image_path: str)</text><text fill="#000000" font-family="sans-serif" font-size="14" lengthAdjust="spacing" textLength="33" x="938.5" y="1071.7676">quit()</text><text fill="#000000" font-family="sans-serif" font-size="14" lengthAdjust="spacing" textLength="76" x="938.5" y="1089.377">quit_game()</text><text fill="#000000" font-family="sans-serif" font-size="14" lengthAdjust="spacing" textLength="174" x="938.5" y="1106.9863">rotate_image(image, angle)</text><text fill="#000000" font-family="sans-serif" font-size="14" lengthAdjust="spacing" textLength="235" x="938.5" y="1124.5957">set_window_caption(window_title: str)</text><text fill="#000000" font-family="sans-serif" font-size="14" lengthAdjust="spacing" textLength="281" x="938.5" y="1142.2051">transform_background_image(image, factor)</text><text fill="#000000" font-family="sans-serif" font-size="14" lengthAdjust="spacing" textLength="198" x="938.5" y="1159.8145">transform_image(image, factor)</text></g><!--MD5=[822cf845bbbf659ab44bea905a9ef2b0]
class spacerover.rover.Rover--><g id="elem_spacerover.rover.Rover"><rect codeLine="86" fill="#F1F1F1" height="470.625" id="spacerover.rover.Rover" rx="2.5" ry="2.5" style="stroke:#181818;stroke-width:0.5;" width="335" x="562" y="634.5"/><ellipse cx="706.25" cy="650.5" fill="#ADD1B2" rx="11" ry="11" style="stroke:#181818;stroke-width:1.0;"/><path d="M709.0156,646.375 Q709.1719,646.1563 709.3594,646.0469 Q709.5469,645.9375 709.7656,645.9375 Q710.1406,645.9375 710.375,646.2031 Q710.6094,646.4531 710.6094,647.0625 L710.6094,648.5156 Q710.6094,649.125 710.375,649.3906 Q710.1406,649.6563 709.7656,649.6563 Q709.4219,649.6563 709.2188,649.4531 Q709.0156,649.2656 708.9063,648.75 Q708.8594,648.3906 708.6719,648.2031 Q708.3438,647.8281 707.7344,647.6094 Q707.125,647.3906 706.5,647.3906 Q705.7344,647.3906 705.0938,647.7188 Q704.4688,648.0469 703.9688,648.7969 Q703.4844,649.5469 703.4844,650.5781 L703.4844,651.6719 Q703.4844,652.9063 704.375,653.7344 Q705.2656,654.5469 706.8594,654.5469 Q707.7969,654.5469 708.4531,654.2969 Q708.8438,654.1406 709.2656,653.7031 Q709.5313,653.4375 709.6719,653.3594 Q709.8281,653.2813 710.0313,653.2813 Q710.3594,653.2813 710.6094,653.5469 Q710.875,653.7969 710.875,654.1406 Q710.875,654.4844 710.5313,654.8906 Q710.0313,655.4688 709.2344,655.7969 Q708.1563,656.25 706.8594,656.25 Q705.3438,656.25 704.1406,655.625 Q703.1563,655.125 702.4688,654.0625 Q701.7813,652.9844 701.7813,651.7031 L701.7813,650.5469 Q701.7813,649.2188 702.3906,648.0781 Q703.0156,646.9219 704.1094,646.3125 Q705.2031,645.6875 706.4375,645.6875 Q707.1719,645.6875 707.8125,645.8594 Q708.4688,646.0156 709.0156,646.375 Z " fill="#000000"/><text fill="#000000" font-family="sans-serif" font-size="14" lengthAdjust="spacing" textLength="38" x="726.75" y="656.2285">Rover</text><line style="stroke:#181818;stroke-width:0.5;" x1="563" x2="896" y1="666.5" y2="666.5"/><text fill="#000000" font-family="sans-serif" font-size="14" lengthAdjust="spacing" textLength="54" x="568" y="685.0332">direction</text><text fill="#000000" font-family="sans-serif" font-size="14" lengthAdjust="spacing" textLength="61" x="568" y="702.6426">directions</text><text fill="#000000" font-family="sans-serif" font-size="14" lengthAdjust="spacing" textLength="115" x="568" y="720.252">endpoint_reached</text><text fill="#000000" font-family="sans-serif" font-size="14" lengthAdjust="spacing" textLength="154" x="568" y="737.8613">endpoint_reached : bool</text><text fill="#000000" font-family="sans-serif" font-size="14" lengthAdjust="spacing" textLength="38" x="568" y="755.4707">image</text><text fill="#000000" font-family="sans-serif" font-size="14" lengthAdjust="spacing" textLength="109" x="568" y="773.0801">pygame_wrapper</text><text fill="#000000" font-family="sans-serif" font-size="14" lengthAdjust="spacing" textLength="24" x="568" y="790.6895">rect</text><text fill="#000000" font-family="sans-serif" font-size="14" lengthAdjust="spacing" textLength="66" x="568" y="808.2988">speed : int</text><line style="stroke:#181818;stroke-width:0.5;" x1="563" x2="896" y1="815.375" y2="815.375"/><text fill="#000000" font-family="sans-serif" font-size="14" lengthAdjust="spacing" textLength="143" x="568" y="833.9082">hit_endpoint(endpoint)</text><text fill="#000000" font-family="sans-serif" font-size="14" lengthAdjust="spacing" textLength="210" x="568" y="851.5176">keys_move_down_pressed(keys)</text><text fill="#000000" font-family="sans-serif" font-size="14" lengthAdjust="spacing" textLength="196" x="568" y="869.127">keys_move_left_pressed(keys)</text><text fill="#000000" font-family="sans-serif" font-size="14" lengthAdjust="spacing" textLength="205" x="568" y="886.7363">keys_move_right_pressed(keys)</text><text fill="#000000" font-family="sans-serif" font-size="14" lengthAdjust="spacing" textLength="193" x="568" y="904.3457">keys_move_up_pressed(keys)</text><text fill="#000000" font-family="sans-serif" font-size="14" lengthAdjust="spacing" textLength="323" x="568" y="921.9551">listen_to_movement(endpoint, obstacles: Obstacle)</text><text fill="#000000" font-family="sans-serif" font-size="14" lengthAdjust="spacing" textLength="213" x="568" y="939.5645">move_down(collide_list, endpoint)</text><text fill="#000000" font-family="sans-serif" font-size="14" lengthAdjust="spacing" textLength="199" x="568" y="957.1738">move_left(collide_list, endpoint)</text><text fill="#000000" font-family="sans-serif" font-size="14" lengthAdjust="spacing" textLength="290" x="568" y="974.7832">move_possible_right(obstacles, new_position)</text><text fill="#000000" font-family="sans-serif" font-size="14" lengthAdjust="spacing" textLength="282" x="568" y="992.3926">move_possible_top(obstacles, new_position)</text><text fill="#000000" font-family="sans-serif" font-size="14" lengthAdjust="spacing" textLength="208" x="568" y="1010.002">move_right(collide_list, endpoint)</text><text fill="#000000" font-family="sans-serif" font-size="14" lengthAdjust="spacing" textLength="196" x="568" y="1027.6113">move_up(collide_list, endpoint)</text><text fill="#000000" font-family="sans-serif" font-size="14" lengthAdjust="spacing" textLength="134" x="568" y="1045.2207">rotate_image_down()</text><text fill="#000000" font-family="sans-serif" font-size="14" lengthAdjust="spacing" textLength="120" x="568" y="1062.8301">rotate_image_left()</text><text fill="#000000" font-family="sans-serif" font-size="14" lengthAdjust="spacing" textLength="129" x="568" y="1080.4395">rotate_image_right()</text><text fill="#000000" font-family="sans-serif" font-size="14" lengthAdjust="spacing" textLength="117" x="568" y="1098.0488">rotate_image_up()</text></g><!--MD5=[16b716fd49c0daa0ead9d3ecb08e78d2]
class .Union--><g id="elem_.Union"><rect codeLine="112" fill="#F1F1F1" height="48" id=".Union" rx="2.5" ry="2.5" style="stroke:#181818;stroke-width:0.5;" width="68" x="1219.5" y="227"/><ellipse cx="1234.5" cy="243" fill="#ADD1B2" rx="11" ry="11" style="stroke:#181818;stroke-width:1.0;"/><path d="M1237.2656,238.875 Q1237.4219,238.6563 1237.6094,238.5469 Q1237.7969,238.4375 1238.0156,238.4375 Q1238.3906,238.4375 1238.625,238.7031 Q1238.8594,238.9531 1238.8594,239.5625 L1238.8594,241.0156 Q1238.8594,241.625 1238.625,241.8906 Q1238.3906,242.1563 1238.0156,242.1563 Q1237.6719,242.1563 1237.4688,241.9531 Q1237.2656,241.7656 1237.1563,241.25 Q1237.1094,240.8906 1236.9219,240.7031 Q1236.5938,240.3281 1235.9844,240.1094 Q1235.375,239.8906 1234.75,239.8906 Q1233.9844,239.8906 1233.3438,240.2188 Q1232.7188,240.5469 1232.2188,241.2969 Q1231.7344,242.0469 1231.7344,243.0781 L1231.7344,244.1719 Q1231.7344,245.4063 1232.625,246.2344 Q1233.5156,247.0469 1235.1094,247.0469 Q1236.0469,247.0469 1236.7031,246.7969 Q1237.0938,246.6406 1237.5156,246.2031 Q1237.7813,245.9375 1237.9219,245.8594 Q1238.0781,245.7813 1238.2813,245.7813 Q1238.6094,245.7813 1238.8594,246.0469 Q1239.125,246.2969 1239.125,246.6406 Q1239.125,246.9844 1238.7813,247.3906 Q1238.2813,247.9688 1237.4844,248.2969 Q1236.4063,248.75 1235.1094,248.75 Q1233.5938,248.75 1232.3906,248.125 Q1231.4063,247.625 1230.7188,246.5625 Q1230.0313,245.4844 1230.0313,244.2031 L1230.0313,243.0469 Q1230.0313,241.7188 1230.6406,240.5781 Q1231.2656,239.4219 1232.3594,238.8125 Q1233.4531,238.1875 1234.6875,238.1875 Q1235.4219,238.1875 1236.0625,238.3594 Q1236.7188,238.5156 1237.2656,238.875 Z " fill="#000000"/><text fill="#000000" font-family="sans-serif" font-size="14" lengthAdjust="spacing" textLength="36" x="1248.5" y="248.7285">Union</text><line style="stroke:#181818;stroke-width:0.5;" x1="1220.5" x2="1286.5" y1="259" y2="259"/><line style="stroke:#181818;stroke-width:0.5;" x1="1220.5" x2="1286.5" y1="267" y2="267"/></g><!--MD5=[0fa6fc95b2be70a1b36c181a0941a3a9]
class spacerover.rover.Rover.directions--><g id="elem_spacerover.rover.Rover.directions"><rect codeLine="114" fill="#F1F1F1" height="118.4375" id="spacerover.rover.Rover.directions" rx="2.5" ry="2.5" style="stroke:#181818;stroke-width:0.5;" width="93" x="557" y="192"/><ellipse cx="572" cy="208" fill="#ADD1B2" rx="11" ry="11" style="stroke:#181818;stroke-width:1.0;"/><path d="M574.7656,203.875 Q574.9219,203.6563 575.1094,203.5469 Q575.2969,203.4375 575.5156,203.4375 Q575.8906,203.4375 576.125,203.7031 Q576.3594,203.9531 576.3594,204.5625 L576.3594,206.0156 Q576.3594,206.625 576.125,206.8906 Q575.8906,207.1563 575.5156,207.1563 Q575.1719,207.1563 574.9688,206.9531 Q574.7656,206.7656 574.6563,206.25 Q574.6094,205.8906 574.4219,205.7031 Q574.0938,205.3281 573.4844,205.1094 Q572.875,204.8906 572.25,204.8906 Q571.4844,204.8906 570.8438,205.2188 Q570.2188,205.5469 569.7188,206.2969 Q569.2344,207.0469 569.2344,208.0781 L569.2344,209.1719 Q569.2344,210.4063 570.125,211.2344 Q571.0156,212.0469 572.6094,212.0469 Q573.5469,212.0469 574.2031,211.7969 Q574.5938,211.6406 575.0156,211.2031 Q575.2813,210.9375 575.4219,210.8594 Q575.5781,210.7813 575.7813,210.7813 Q576.1094,210.7813 576.3594,211.0469 Q576.625,211.2969 576.625,211.6406 Q576.625,211.9844 576.2813,212.3906 Q575.7813,212.9688 574.9844,213.2969 Q573.9063,213.75 572.6094,213.75 Q571.0938,213.75 569.8906,213.125 Q568.9063,212.625 568.2188,211.5625 Q567.5313,210.4844 567.5313,209.2031 L567.5313,208.0469 Q567.5313,206.7188 568.1406,205.5781 Q568.7656,204.4219 569.8594,203.8125 Q570.9531,203.1875 572.1875,203.1875 Q572.9219,203.1875 573.5625,203.3594 Q574.2188,203.5156 574.7656,203.875 Z " fill="#000000"/><text fill="#000000" font-family="sans-serif" font-size="14" lengthAdjust="spacing" textLength="61" x="586" y="213.7285">directions</text><line style="stroke:#181818;stroke-width:0.5;" x1="558" x2="649" y1="224" y2="224"/><text fill="#000000" font-family="sans-serif" font-size="14" lengthAdjust="spacing" textLength="33" x="563" y="242.5332">down</text><text fill="#000000" font-family="sans-serif" font-size="14" lengthAdjust="spacing" textLength="19" x="563" y="260.1426">left</text><text fill="#000000" font-family="sans-serif" font-size="14" lengthAdjust="spacing" textLength="28" x="563" y="277.752">right</text><text fill="#000000" font-family="sans-serif" font-size="14" lengthAdjust="spacing" textLength="16" x="563" y="295.3613">up</text><line style="stroke:#181818;stroke-width:0.5;" x1="558" x2="649" y1="302.4375" y2="302.4375"/></g><!--MD5=[45503b1b92e16af583a7bdd3fc6c060a]
link spacerover.rover.Rover.directions to .EnumMeta--><g id="link_spacerover.rover.Rover.directions_.EnumMeta"><path codeLine="120" d="M591.65,310.05 C566.51,433.11 508.37,717.81 486.26,826.12 " fill="none" id="spacerover.rover.Rover.directions-to-.EnumMeta" style="stroke:#181818;stroke-width:1.0;"/><polygon fill="none" points="493.08,827.69,482.22,845.88,479.36,824.89,493.08,827.69" style="stroke:#181818;stroke-width:1.0;"/></g><!--MD5=[c475b7960a961dfec9d6c8cd422b54c6]
link .Union to spacerover.pygame_wrapper.PygameWrapper--><g id="link_.Union_spacerover.pygame_wrapper.PygameWrapper"><path codeLine="121" d="M1253.5,275.06 C1253.5,323.56 1253.5,441.41 1253.5,559.46 " fill="none" id=".Union-to-spacerover.pygame_wrapper.PygameWrapper" style="stroke:#181818;stroke-width:1.0;"/><polygon fill="#181818" points="1253.5,572.74,1257.5,566.74,1253.5,560.74,1249.5,566.74,1253.5,572.74" style="stroke:#181818;stroke-width:1.0;"/><text fill="#000000" font-family="sans-serif" font-size="13" lengthAdjust="spacing" textLength="62" x="1254.5" y="539.4951">Coordinate</text></g><!--MD5=[6a65aa1674e81cc176daae3c8a93f6d3]
link spacerover.rover.Rover.directions to spacerover.rover.Rover--><g id="link_spacerover.rover.Rover.directions_spacerover.rover.Rover"><path codeLine="122" d="M615.35,310.05 C629.94,381.47 655.64,507.32 678.97,621.55 " fill="none" id="spacerover.rover.Rover.directions-to-spacerover.rover.Rover" style="stroke:#181818;stroke-width:1.0;"/><polygon fill="#181818" points="681.58,634.34,684.2997,627.6615,679.181,622.5822,676.4612,629.2608,681.58,634.34" style="stroke:#181818;stroke-width:1.0;"/><text fill="#000000" font-family="sans-serif" font-size="13" lengthAdjust="spacing" textLength="56" x="664.5" y="539.4951">directions</text></g><!--MD5=[7701ef340cc5add6042153bbf4f681a2]
@startuml classes
set namespaceSeparator none
class "EnumMeta" as .EnumMeta {
}
class "LevelOne" as spacerover.level_one.LevelOne {
  TEXT_COL : tuple
  background_image
  background_image
  cols : int
  endpoint_image
  endpoint_image_rect
  font
  game_paused : bool
  obstacles : list
  pygame_wrapper
  rover
  rows : int
  screen
  screen_height
  screen_width
  startpoint_image
  startpoint_image_rect
  titleFont
  window_title
  draw_obstacles()
  draw_text(text, font, text_col, x, y)
  load_endpoint()
  load_obstacles()
  load_startpoint()
  open()
}
class "MainMenu" as spacerover.main_menu.MainMenu {
  buttonLocationLeft
  buttonLocationQuitTop
  buttonLocationStartTop
  font
  pygame_wrapper
  screen
  screen_height
  screen_width
  titleFont
  draw_text(text, font, color, surface, x, y)
  game()
  open()
  options()
}
class "Obstacle" as spacerover.obstacle.Obstacle {
  image
  pygame_wrapper
  rect
  type : type
  draw(screen)
}
class "PygameWrapper" as spacerover.pygame_wrapper.PygameWrapper {
  Coordinate
  key_a
  key_d
  key_down
  key_left
  key_right
  key_s
  key_up
  key_w
  Clock()
  Rect(left: float, top: float, width: float, height: float)
  create_button(button_location_left: int, button_location_top: int, button_width: int, button_height: int)
  create_font(font: str, fontSize: int)
  display_flip()
  display_set_mode(size: Coordinate)
  display_update()
  draw_rect(color, rect, width: int)
  get_event()
  get_event_type_kescape()
  get_event_type_keydown()
  get_event_type_mousebuttondown()
  get_event_type_quit()
  get_key_pressed()
  get_mouse_position()
  load_image(image_path: str)
  quit()
  quit_game()
  rotate_image(image, angle)
  set_window_caption(window_title: str)
  transform_background_image(image, factor)
  transform_image(image, factor)
}
class "Rover" as spacerover.rover.Rover {
  direction
  directions
  endpoint_reached
  endpoint_reached : bool
  image
  pygame_wrapper
  rect
  speed : int
  hit_endpoint(endpoint)
  keys_move_down_pressed(keys)
  keys_move_left_pressed(keys)
  keys_move_right_pressed(keys)
  keys_move_up_pressed(keys)
  listen_to_movement(endpoint, obstacles: Obstacle)
  move_down(collide_list, endpoint)
  move_left(collide_list, endpoint)
  move_possible_right(obstacles, new_position)
  move_possible_top(obstacles, new_position)
  move_right(collide_list, endpoint)
  move_up(collide_list, endpoint)
  rotate_image_down()
  rotate_image_left()
  rotate_image_right()
  rotate_image_up()
}
class "Union" as .Union {
}
class "directions" as spacerover.rover.Rover.directions {
  down
  left
  right
  up
}
spacerover.rover.Rover.directions - -|> .EnumMeta
.Union - -* spacerover.pygame_wrapper.PygameWrapper : Coordinate
spacerover.rover.Rover.directions - -* spacerover.rover.Rover : directions
@enduml

PlantUML version 1.2022.7(Mon Aug 22 19:01:30 CEST 2022)
(GPL source distribution)
Java Runtime: Java(TM) SE Runtime Environment
JVM: Java HotSpot(TM) 64-Bit Server VM
Default Encoding: UTF-8
Language: en
Country: US
--></g></svg>