<?xml version="1.0" encoding="UTF-8" standalone="no"?><svg xmlns="http://www.w3.org/2000/svg" xmlns:xlink="http://www.w3.org/1999/xlink" contentStyleType="text/css" height="528px" preserveAspectRatio="none" style="width:449px;height:528px;background:#FFFFFF;" version="1.1" viewBox="0 0 449 528" width="449px" zoomAndPan="magnify"><defs/><g><path d="M53,6 L125,6 A3.75,3.75 0 0 1 127.5,8.5 L134.5,29.6094 L139,29.6094 A2.5,2.5 0 0 1 141.5,32.1094 L141.5,58.7188 A2.5,2.5 0 0 1 139,61.2188 L53,61.2188 A2.5,2.5 0 0 1 50.5,58.7188 L50.5,8.5 A2.5,2.5 0 0 1 53,6 " fill="#F1F1F1" style="stroke:#181818;stroke-width:0.5;"/><line style="stroke:#181818;stroke-width:0.5;" x1="50.5" x2="134.5" y1="29.6094" y2="29.6094"/><text fill="#000000" font-family="sans-serif" font-size="14" lengthAdjust="spacing" textLength="71" x="54.5" y="22.5332">spacerover</text><path d="M98.5,236 L235.5,236 A3.75,3.75 0 0 1 238,238.5 L245,259.6094 L249.5,259.6094 A2.5,2.5 0 0 1 252,262.1094 L252,288.7188 A2.5,2.5 0 0 1 249.5,291.2188 L98.5,291.2188 A2.5,2.5 0 0 1 96,288.7188 L96,238.5 A2.5,2.5 0 0 1 98.5,236 " fill="#F1F1F1" style="stroke:#181818;stroke-width:0.5;"/><line style="stroke:#181818;stroke-width:0.5;" x1="96" x2="245" y1="259.6094" y2="259.6094"/><text fill="#000000" font-family="sans-serif" font-size="14" lengthAdjust="spacing" textLength="136" x="100" y="252.5332">spacerover.level_one</text><path d="M179,6 L285,6 A3.75,3.75 0 0 1 287.5,8.5 L294.5,29.6094 L299,29.6094 A2.5,2.5 0 0 1 301.5,32.1094 L301.5,58.7188 A2.5,2.5 0 0 1 299,61.2188 L179,61.2188 A2.5,2.5 0 0 1 176.5,58.7188 L176.5,8.5 A2.5,2.5 0 0 1 179,6 " fill="#F1F1F1" style="stroke:#181818;stroke-width:0.5;"/><line style="stroke:#181818;stroke-width:0.5;" x1="176.5" x2="294.5" y1="29.6094" y2="29.6094"/><text fill="#000000" font-family="sans-serif" font-size="14" lengthAdjust="spacing" textLength="105" x="180.5" y="22.5332">spacerover.main</text><path d="M157.5,121 L306.5,121 A3.75,3.75 0 0 1 309,123.5 L316,144.6094 L320.5,144.6094 A2.5,2.5 0 0 1 323,147.1094 L323,173.7188 A2.5,2.5 0 0 1 320.5,176.2188 L157.5,176.2188 A2.5,2.5 0 0 1 155,173.7188 L155,123.5 A2.5,2.5 0 0 1 157.5,121 " fill="#F1F1F1" style="stroke:#181818;stroke-width:0.5;"/><line style="stroke:#181818;stroke-width:0.5;" x1="155" x2="316" y1="144.6094" y2="144.6094"/><text fill="#000000" font-family="sans-serif" font-size="14" lengthAdjust="spacing" textLength="148" x="159" y="137.5332">spacerover.main_menu</text><path d="M8.5,466 L137.5,466 A3.75,3.75 0 0 1 140,468.5 L147,489.6094 L151.5,489.6094 A2.5,2.5 0 0 1 154,492.1094 L154,518.7188 A2.5,2.5 0 0 1 151.5,521.2188 L8.5,521.2188 A2.5,2.5 0 0 1 6,518.7188 L6,468.5 A2.5,2.5 0 0 1 8.5,466 " fill="#F1F1F1" style="stroke:#181818;stroke-width:0.5;"/><line style="stroke:#181818;stroke-width:0.5;" x1="6" x2="147" y1="489.6094" y2="489.6094"/><text fill="#000000" font-family="sans-serif" font-size="14" lengthAdjust="spacing" textLength="128" x="10" y="482.5332">spacerover.obstacle</text><path d="M240.5,351 L425.5,351 A3.75,3.75 0 0 1 428,353.5 L435,374.6094 L439.5,374.6094 A2.5,2.5 0 0 1 442,377.1094 L442,403.7188 A2.5,2.5 0 0 1 439.5,406.2188 L240.5,406.2188 A2.5,2.5 0 0 1 238,403.7188 L238,353.5 A2.5,2.5 0 0 1 240.5,351 " fill="#F1F1F1" style="stroke:#181818;stroke-width:0.5;"/><line style="stroke:#181818;stroke-width:0.5;" x1="238" x2="435" y1="374.6094" y2="374.6094"/><text fill="#000000" font-family="sans-serif" font-size="14" lengthAdjust="spacing" textLength="184" x="242" y="367.5332">spacerover.pygame_wrapper</text><path d="M77.5,351 L186.5,351 A3.75,3.75 0 0 1 189,353.5 L196,374.6094 L200.5,374.6094 A2.5,2.5 0 0 1 203,377.1094 L203,403.7188 A2.5,2.5 0 0 1 200.5,406.2188 L77.5,406.2188 A2.5,2.5 0 0 1 75,403.7188 L75,353.5 A2.5,2.5 0 0 1 77.5,351 " fill="#F1F1F1" style="stroke:#181818;stroke-width:0.5;"/><line style="stroke:#181818;stroke-width:0.5;" x1="75" x2="196" y1="374.6094" y2="374.6094"/><text fill="#000000" font-family="sans-serif" font-size="14" lengthAdjust="spacing" textLength="108" x="79" y="367.5332">spacerover.rover</text><!--MD5=[f7e667e185ed487faeef6297dbc438d0]
link spacerover.level_one to spacerover.obstacle--><g id="link_spacerover.level_one_spacerover.obstacle"><path d="M117.91,291.08 C94.59,305.32 69.97,325.29 57,351 C39.39,385.91 52.06,431.26 64.47,461.09 " fill="none" id="spacerover.level_one-to-spacerover.obstacle" style="stroke:#181818;stroke-width:1.0;"/><polygon fill="#181818" points="66.46,465.74,66.6172,455.8924,64.5025,461.1391,59.2558,459.0244,66.46,465.74" style="stroke:#181818;stroke-width:1.0;"/></g><!--MD5=[332ae46242937a5f35fae2f1d38fd92f]
link spacerover.level_one to spacerover.pygame_wrapper--><g id="link_spacerover.level_one_spacerover.pygame_wrapper"><path d="M213.34,291.28 C238.35,308.31 270.77,330.37 296.54,347.92 " fill="none" id="spacerover.level_one-to-spacerover.pygame_wrapper" style="stroke:#181818;stroke-width:1.0;"/><polygon fill="#181818" points="300.94,350.91,295.743,342.544,296.804,348.1004,291.2476,349.1615,300.94,350.91" style="stroke:#181818;stroke-width:1.0;"/></g><!--MD5=[1b323033e7e2f2e61b64cb3cc6f576e3]
link spacerover.level_one to spacerover.rover--><g id="link_spacerover.level_one_spacerover.rover"><path d="M165.71,291.28 C160.65,307.6 154.16,328.56 148.84,345.72 " fill="none" id="spacerover.level_one-to-spacerover.rover" style="stroke:#181818;stroke-width:1.0;"/><polygon fill="#181818" points="147.23,350.91,153.6983,343.483,148.6994,346.1308,146.0516,341.1319,147.23,350.91" style="stroke:#181818;stroke-width:1.0;"/></g><!--MD5=[3bd0ef83c9e476438c52ac1f54b0acfa]
link spacerover.main to spacerover.main_menu--><g id="link_spacerover.main_spacerover.main_menu"><path d="M239,61.28 C239,77.6 239,98.56 239,115.72 " fill="none" id="spacerover.main-to-spacerover.main_menu" style="stroke:#181818;stroke-width:1.0;"/><polygon fill="#181818" points="239,120.91,243,111.91,239,115.91,235,111.91,239,120.91" style="stroke:#181818;stroke-width:1.0;"/></g><!--MD5=[7d5db2c2507cdfa3fda5cc1bc0d25ece]
link spacerover.main_menu to spacerover.level_one--><g id="link_spacerover.main_menu_spacerover.level_one"><path d="M223.6,176.28 C214.12,192.74 201.95,213.92 192.03,231.16 " fill="none" id="spacerover.main_menu-to-spacerover.level_one" style="stroke:#181818;stroke-width:1.0;"/><polygon fill="#181818" points="189.29,235.91,197.2406,230.0973,191.7799,231.5741,190.3031,226.1134,189.29,235.91" style="stroke:#181818;stroke-width:1.0;"/></g><!--MD5=[72a86da3d1795d63d7965d6da9f5c99a]
link spacerover.main_menu to spacerover.pygame_wrapper--><g id="link_spacerover.main_menu_spacerover.pygame_wrapper"><path d="M250.78,176.1 C269.51,218.38 305.99,300.73 326.01,345.93 " fill="none" id="spacerover.main_menu-to-spacerover.pygame_wrapper" style="stroke:#181818;stroke-width:1.0;"/><polygon fill="#181818" points="328.14,350.72,328.1715,340.8712,326.1239,346.1445,320.8506,344.0969,328.14,350.72" style="stroke:#181818;stroke-width:1.0;"/></g><!--MD5=[3587ffcb85a2a90dfcfd4196b35cfcb6]
link spacerover.rover to spacerover.obstacle--><g id="link_spacerover.rover_spacerover.obstacle"><path d="M125.02,406.28 C116.42,422.74 105.37,443.92 96.36,461.16 " fill="none" id="spacerover.rover-to-spacerover.obstacle" style="stroke:#181818;stroke-width:1.0;"/><polygon fill="#181818" points="93.88,465.91,101.5854,459.7759,96.1899,461.4756,94.4903,456.0801,93.88,465.91" style="stroke:#181818;stroke-width:1.0;"/></g><!--MD5=[bb575a1f6059629d2dc0468f9e86c553]
@startuml packages
set namespaceSeparator none
package "spacerover" as spacerover {
}
package "spacerover.level_one" as spacerover.level_one {
}
package "spacerover.main" as spacerover.main {
}
package "spacerover.main_menu" as spacerover.main_menu {
}
package "spacerover.obstacle" as spacerover.obstacle {
}
package "spacerover.pygame_wrapper" as spacerover.pygame_wrapper {
}
package "spacerover.rover" as spacerover.rover {
}
spacerover.level_one - -> spacerover.obstacle
spacerover.level_one - -> spacerover.pygame_wrapper
spacerover.level_one - -> spacerover.rover
spacerover.main - -> spacerover.main_menu
spacerover.main_menu - -> spacerover.level_one
spacerover.main_menu - -> spacerover.pygame_wrapper
spacerover.rover - -> spacerover.obstacle
@enduml

PlantUML version 1.2022.7(Mon Aug 22 19:01:30 CEST 2022)
(GPL source distribution)
Java Runtime: Java(TM) SE Runtime Environment
JVM: Java HotSpot(TM) 64-Bit Server VM
Default Encoding: UTF-8
Language: en
Country: US
--></g></svg>